Oswald-Stencil.ufo
<glyph name="exclam" format="1">
  <advance width="504"/>
  <unicode hex="0021"/>
  <outline>
    <contour>
      <point x="199" y="445" type="line"/>
      <point x="301" y="445" type="line"/>
      <point x="410" y="1781" type="line"/>
      <point x="100" y="1781" type="line"/>
    </contour>
    <contour>
      <point x="105" y="0" type="line"/>
      <point x="397" y="0" type="line"/>
      <point x="397" y="286" type="line"/>
      <point x="105" y="286" type="line"/>
    </contour>
  </outline>
</glyph>
<glyph name="numbersign" format="1">
  <advance width="1121"/>
  <unicode hex="0023"/>
  <outline>
    <contour>
      <point x="123" y="0" type="line"/>
      <point x="315" y="0" type="line"/>
      <point x="425" y="626" type="line"/>
      <point x="576" y="626" type="line"/>
      <point x="466" y="0" type="line"/>
      <point x="659" y="0" type="line"/>
      <point x="769" y="626" type="line"/>
      <point x="998" y="626" type="line"/>
      <point x="998" y="852" type="line"/>
      <point x="806" y="852" type="line"/>
      <point x="833" y="994" type="line"/>
      <point x="1009" y="994" type="line"/>
      <point x="1009" y="1217" type="line"/>
      <point x="869" y="1217" type="line"/>
      <point x="968" y="1783" type="line"/>
      <point x="774" y="1783" type="line"/>
      <point x="675" y="1217" type="line"/>
      <point x="526" y="1217" type="line"/>
      <point x="625" y="1783" type="line"/>
      <point x="430" y="1783" type="line"/>
      <point x="332" y="1217" type="line"/>
      <point x="99" y="1217" type="line"/>
      <point x="99" y="994" type="line"/>
      <point x="296" y="994" type="line"/>
      <point x="268" y="852" type="line"/>
      <point x="88" y="852" type="line"/>
      <point x="88" y="626" type="line"/>
      <point x="233" y="626" type="line"/>
    </contour>
    <contour>
      <point x="462" y="852" type="line"/>
      <point x="489" y="994" type="line"/>
      <point x="639" y="994" type="line"/>
      <point x="612" y="852" type="line"/>
    </contour>
  </outline>
</glyph>
<glyph name="dollar" format="1">
  <advance width="1101"/>
  <unicode hex="0024"/>
  <outline>
    <contour>
      <point x="510" y="1459" type="line"/>
      <point x="523" y="1461"/>
      <point x="538" y="1463"/>
      <point x="553" y="1463" type="curve" smooth="yes"/>
      <point x="662" y="1463"/>
      <point x="697" y="1363"/>
      <point x="703" y="1271" type="curve"/>
      <point x="703" y="1248"/>
      <point x="702" y="1226"/>
      <point x="701" y="1212" type="curve"/>
      <point x="1019" y="1260" type="line"/>
      <point x="1018" y="1261"/>
      <point x="1019" y="1299"/>
      <point x="1018" y="1300" type="curve"/>
      <point x="1009" y="1527"/>
      <point x="837" y="1690"/>
      <point x="607" y="1704" type="curve"/>
      <point x="607" y="1890" type="line"/>
      <point x="510" y="1890" type="line"/>
    </contour>
    <contour>
      <point x="607" y="302" type="line"/>
      <point x="597" y="300"/>
      <point x="586" y="299"/>
      <point x="574" y="299" type="curve" smooth="yes"/>
      <point x="413" y="299"/>
      <point x="399" y="498"/>
      <point x="399" y="603" type="curve"/>
      <point x="86" y="541" type="line"/>
      <point x="94" y="290"/>
      <point x="218" y="83"/>
      <point x="510" y="56" type="curve"/>
      <point x="510" y="-108" type="line"/>
      <point x="607" y="-108" type="line"/>
    </contour>
    <contour>
      <point x="657" y="60" type="line"/>
      <point x="866" y="89"/>
      <point x="1025" y="237"/>
      <point x="1025" y="456" type="curve" smooth="yes"/>
      <point x="1025" y="695"/>
      <point x="896" y="813"/>
      <point x="705" y="959" type="curve" smooth="yes"/>
      <point x="546" y="1081" type="line" smooth="yes"/>
      <point x="460" y="1147"/>
      <point x="397" y="1213"/>
      <point x="397" y="1314" type="curve" smooth="yes"/>
      <point x="397" y="1367"/>
      <point x="417" y="1414"/>
      <point x="460" y="1440" type="curve"/>
      <point x="460" y="1697" type="line"/>
      <point x="236" y="1661"/>
      <point x="86" y="1511"/>
      <point x="86" y="1275" type="curve" smooth="yes"/>
      <point x="86" y="1075"/>
      <point x="214" y="956"/>
      <point x="346" y="852" type="curve" smooth="yes"/>
      <point x="499" y="732" type="line" smooth="yes"/>
      <point x="611" y="644"/>
      <point x="714" y="568"/>
      <point x="714" y="448" type="curve" smooth="yes"/>
      <point x="714" y="389"/>
      <point x="699" y="342"/>
      <point x="657" y="318" type="curve"/>
    </contour>
  </outline>
</glyph>
<glyph name="ampersand" format="1">
  <advance width="1177"/>
  <unicode hex="0026"/>
  <outline>
    <contour>
      <point x="306" y="892" type="line" smooth="yes"/>
      <point x="176" y="731"/>
      <point x="66" y="566"/>
      <point x="66" y="369" type="curve" smooth="yes"/>
      <point x="66" y="152"/>
      <point x="190" y="-21"/>
      <point x="430" y="-29" type="curve"/>
      <point x="430" y="196" type="line"/>
      <point x="357" y="223"/>
      <point x="328" y="297"/>
      <point x="328" y="381" type="curve" smooth="yes"/>
      <point x="328" y="476"/>
      <point x="366" y="584"/>
      <point x="420" y="652" type="curve" smooth="yes"/>
      <point x="589" y="863" type="line" smooth="yes"/>
      <point x="742" y="1054"/>
      <point x="882" y="1224"/>
      <point x="882" y="1444" type="curve" smooth="yes"/>
      <point x="882" y="1656"/>
      <point x="745" y="1796"/>
      <point x="538" y="1812" type="curve"/>
      <point x="538" y="1590" type="line"/>
      <point x="610" y="1576"/>
      <point x="635" y="1499"/>
      <point x="635" y="1432" type="curve" smooth="yes"/>
      <point x="635" y="1310"/>
      <point x="559" y="1205"/>
      <point x="476" y="1102" type="curve" smooth="yes"/>
    </contour>
    <contour>
      <point x="797" y="124" type="curve"/>
      <point x="917" y="-35" type="line"/>
      <point x="1098" y="126" type="line"/>
      <point x="953" y="314" type="line"/>
      <point x="1152" y="558" type="line"/>
      <point x="984" y="725" type="line"/>
      <point x="636" y="296" type="line" smooth="yes"/>
      <point x="593" y="243"/>
      <point x="542" y="199"/>
      <point x="478" y="194" type="curve"/>
      <point x="478" y="-29" type="line"/>
      <point x="603" y="-24"/>
      <point x="717" y="27"/>
    </contour>
    <contour>
      <point x="453" y="1155" type="line"/>
      <point x="417" y="1247"/>
      <point x="404" y="1327"/>
      <point x="404" y="1418" type="curve" smooth="yes"/>
      <point x="404" y="1478"/>
      <point x="417" y="1572"/>
      <point x="489" y="1589" type="curve"/>
      <point x="489" y="1814" type="line"/>
      <point x="263" y="1810"/>
      <point x="135" y="1639"/>
      <point x="135" y="1420" type="curve" smooth="yes"/>
      <point x="135" y="1289"/>
      <point x="211" y="1093"/>
      <point x="282" y="944" type="curve"/>
    </contour>
    <contour>
      <point x="781" y="554" type="line"/>
      <point x="618" y="816" type="line"/>
      <point x="446" y="606" type="line"/>
      <point x="478" y="549"/>
      <point x="553" y="430"/>
      <point x="608" y="341" type="curve"/>
    </contour>
  </outline>
</glyph>
<glyph name="quotesingle" format="1">
  <advance width="360"/>
  <unicode hex="0027"/>
  <outline>
    <contour>
      <point x="113" y="1247" type="line"/>
      <point x="254" y="1247" type="line"/>
      <point x="260" y="1281"/>
      <point x="315" y="1746"/>
      <point x="321" y="1780" type="curve"/>
      <point x="47" y="1780" type="line"/>
    </contour>
  </outline>
</glyph>
<glyph name="parenleft" format="1">
  <advance width="660"/>
  <unicode hex="0028"/>
  <outline>
    <contour>
      <point x="616" y="138" type="line"/>
      <point x="424" y="138"/>
      <point x="402" y="481"/>
      <point x="402" y="731" type="curve" smooth="yes"/>
      <point x="402" y="806"/>
      <point x="404" y="873"/>
      <point x="404" y="917" type="curve" smooth="yes"/>
      <point x="404" y="958"/>
      <point x="402" y="1017"/>
      <point x="402" y="1084" type="curve" smooth="yes"/>
      <point x="402" y="1329"/>
      <point x="423" y="1678"/>
      <point x="616" y="1678" type="curve"/>
      <point x="616" y="1880" type="line"/>
      <point x="107" y="1880"/>
      <point x="147" y="1182"/>
      <point x="147" y="848" type="curve" smooth="yes"/>
      <point x="147" y="492"/>
      <point x="159" y="-64"/>
      <point x="616" y="-64" type="curve"/>
    </contour>
  </outline>
</glyph>
<glyph name="parenright" format="1">
  <advance width="662"/>
  <unicode hex="0029"/>
  <outline>
    <contour>
      <point x="89" y="-64" type="line"/>
      <point x="593" y="-64"/>
      <point x="559" y="623"/>
      <point x="559" y="959" type="curve" smooth="yes"/>
      <point x="559" y="1315"/>
      <point x="548" y="1880"/>
      <point x="89" y="1880" type="curve"/>
      <point x="89" y="1678" type="line"/>
      <point x="282" y="1678"/>
      <point x="302" y="1325"/>
      <point x="302" y="1079" type="curve" smooth="yes"/>
      <point x="302" y="1014"/>
      <point x="301" y="957"/>
      <point x="301" y="917" type="curve" smooth="yes"/>
      <point x="301" y="873"/>
      <point x="303" y="806"/>
      <point x="303" y="731" type="curve" smooth="yes"/>
      <point x="303" y="481"/>
      <point x="281" y="138"/>
      <point x="89" y="138" type="curve"/>
    </contour>
  </outline>
</glyph>
<glyph name="asterisk" format="1">
  <advance width="879"/>
  <unicode hex="002A"/>
  <outline>
    <contour>
      <point x="605" y="870" type="line"/>
      <point x="776" y="972" type="line"/>
      <point x="612" y="1206" type="line"/>
      <point x="861" y="1302" type="line"/>
      <point x="795" y="1475" type="line"/>
      <point x="566" y="1356" type="line"/>
      <point x="591" y="1629" type="line"/>
      <point x="341" y="1629" type="line"/>
      <point x="366" y="1356" type="line"/>
      <point x="137" y="1475" type="line"/>
      <point x="71" y="1302" type="line"/>
      <point x="320" y="1206" type="line"/>
      <point x="156" y="972" type="line"/>
      <point x="327" y="870" type="line"/>
      <point x="471" y="1104" type="line"/>
    </contour>
  </outline>
</glyph>
<glyph name="plus" format="1">
  <advance width="737"/>
  <unicode hex="002B"/>
  <outline>
    <contour>
      <point x="57" y="607" type="line"/>
      <point x="233" y="607" type="line"/>
      <point x="233" y="431" type="line"/>
      <point x="419" y="431" type="line"/>
      <point x="419" y="607" type="line"/>
      <point x="598" y="607" type="line"/>
      <point x="598" y="755" type="line"/>
      <point x="419" y="755" type="line"/>
      <point x="419" y="931" type="line"/>
      <point x="233" y="931" type="line"/>
      <point x="233" y="755" type="line"/>
      <point x="57" y="755" type="line"/>
    </contour>
  </outline>
</glyph>
<glyph name="comma" format="1">
  <advance width="451"/>
  <unicode hex="002C"/>
  <outline>
    <contour>
      <point x="155" y="-247" type="line"/>
      <point x="168" y="-249"/>
      <point x="181" y="-249"/>
      <point x="193" y="-249" type="curve" smooth="yes"/>
      <point x="368" y="-249"/>
      <point x="382" y="-87"/>
      <point x="382" y="140" type="curve" smooth="yes"/>
      <point x="382" y="186"/>
      <point x="382" y="235"/>
      <point x="382" y="286" type="curve"/>
      <point x="90" y="286" type="line"/>
      <point x="90" y="-1" type="line"/>
      <point x="204" y="-1" type="line"/>
      <point x="203" y="-77"/>
      <point x="194" y="-98"/>
      <point x="117" y="-105" type="curve"/>
    </contour>
  </outline>
</glyph>
<glyph name="hyphen" format="1">
  <advance width="452"/>
  <unicode hex="002D"/>
  <outline>
    <contour>
      <point x="29" y="452" type="line"/>
      <point x="423" y="452" type="line"/>
      <point x="423" y="651" type="line"/>
      <point x="29" y="651" type="line"/>
    </contour>
  </outline>
</glyph>
<glyph name="period" format="1">
  <advance width="494"/>
  <unicode hex="002E"/>
  <outline>
    <contour>
      <point x="103" y="0" type="line"/>
      <point x="396" y="0" type="line"/>
      <point x="396" y="286" type="line"/>
      <point x="103" y="286" type="line"/>
    </contour>
  </outline>
</glyph>
<glyph name="zero" format="1">
  <advance width="1125"/>
  <unicode hex="0030"/>
  <outline>
    <contour>
      <point x="542" y="232" type="line"/>
      <point x="422" y="247"/>
      <point x="402" y="406"/>
      <point x="402" y="514" type="curve" smooth="yes"/>
      <point x="402" y="1266" type="line" smooth="yes"/>
      <point x="402" y="1376"/>
      <point x="416" y="1533"/>
      <point x="542" y="1548" type="curve"/>
      <point x="542" y="1814" type="line"/>
      <point x="221" y="1805"/>
      <point x="95" y="1559"/>
      <point x="95" y="1258" type="curve" smooth="yes"/>
      <point x="95" y="522" type="line" smooth="yes"/>
      <point x="95" y="227"/>
      <point x="226" y="-24"/>
      <point x="542" y="-33" type="curve"/>
    </contour>
    <contour>
      <point x="592" y="-32" type="line"/>
      <point x="897" y="-17"/>
      <point x="1031" y="232"/>
      <point x="1031" y="522" type="curve" smooth="yes"/>
      <point x="1031" y="1258" type="line" smooth="yes"/>
      <point x="1031" y="1556"/>
      <point x="906" y="1800"/>
      <point x="592" y="1813" type="curve"/>
      <point x="592" y="1547" type="line"/>
      <point x="709" y="1526"/>
      <point x="726" y="1374"/>
      <point x="726" y="1266" type="curve" smooth="yes"/>
      <point x="726" y="514" type="line" smooth="yes"/>
      <point x="726" y="408"/>
      <point x="705" y="256"/>
      <point x="592" y="234" type="curve"/>
    </contour>
  </outline>
</glyph>
<glyph name="one" format="1">
  <advance width="644"/>
  <unicode hex="0031"/>
  <outline>
    <contour>
      <point x="177" y="1671" type="line"/>
      <point x="124" y="1629"/>
      <point x="63" y="1600"/>
      <point x="2" y="1574" type="curve"/>
      <point x="2" y="1336" type="line"/>
      <point x="178" y="1353" type="line"/>
    </contour>
    <contour>
      <point x="227" y="0" type="line"/>
      <point x="528" y="0" type="line"/>
      <point x="528" y="1783" type="line"/>
      <point x="298" y="1783" type="line"/>
      <point x="275" y="1743"/>
      <point x="256" y="1716"/>
      <point x="226" y="1694" type="curve"/>
    </contour>
  </outline>
</glyph>
<glyph name="two" format="1">
  <advance width="1045"/>
  <unicode hex="0032"/>
  <outline>
    <contour>
      <point x="471" y="332" type="line"/>
      <point x="546" y="441"/>
      <point x="701" y="667"/>
      <point x="778" y="786" type="curve"/>
      <point x="890" y="943"/>
      <point x="987" y="1129"/>
      <point x="987" y="1324" type="curve" smooth="yes"/>
      <point x="987" y="1614"/>
      <point x="835" y="1805"/>
      <point x="553" y="1815" type="curve"/>
      <point x="553" y="1550" type="line"/>
      <point x="647" y="1534"/>
      <point x="684" y="1422"/>
      <point x="684" y="1324" type="curve" smooth="yes"/>
      <point x="684" y="1176"/>
      <point x="596" y="1022"/>
      <point x="515" y="904" type="curve" smooth="yes"/>
      <point x="47" y="219" type="line"/>
      <point x="47" y="0" type="line"/>
      <point x="226" y="0" type="line"/>
    </contour>
    <contour>
      <point x="504" y="1815" type="line"/>
      <point x="186" y="1804"/>
      <point x="64" y="1578"/>
      <point x="64" y="1268" type="curve" smooth="yes"/>
      <point x="64" y="1175" type="line"/>
      <point x="366" y="1175" type="line"/>
      <point x="366" y="1293"/>
      <point x="361" y="1526"/>
      <point x="504" y="1550" type="curve"/>
    </contour>
    <contour>
      <point x="289" y="0" type="line"/>
      <point x="982" y="0" type="line"/>
      <point x="982" y="296" type="line"/>
      <point x="507" y="296" type="line"/>
    </contour>
  </outline>
</glyph>
<glyph name="three" format="1">
  <advance width="1065"/>
  <unicode hex="0033"/>
  <outline>
    <contour>
      <point x="506" y="1815" type="line"/>
      <point x="216" y="1803"/>
      <point x="70" y="1611"/>
      <point x="70" y="1333" type="curve" smooth="yes"/>
      <point x="70" y="1238" type="line"/>
      <point x="373" y="1238" type="line"/>
      <point x="375" y="1361"/>
      <point x="386" y="1528"/>
      <point x="506" y="1550" type="curve"/>
    </contour>
    <contour>
      <point x="506" y="234" type="line"/>
      <point x="384" y="255"/>
      <point x="374" y="416"/>
      <point x="373" y="546" type="curve"/>
      <point x="70" y="546" type="line"/>
      <point x="70" y="493" type="line"/>
      <point x="76" y="206"/>
      <point x="171" y="-22"/>
      <point x="506" y="-33" type="curve"/>
    </contour>
    <contour>
      <point x="556" y="-33" type="line"/>
      <point x="880" y="-22"/>
      <point x="996" y="208"/>
      <point x="996" y="515" type="curve" smooth="yes"/>
      <point x="996" y="708"/>
      <point x="930" y="864"/>
      <point x="802" y="950" type="curve"/>
      <point x="927" y="1019"/>
      <point x="996" y="1171"/>
      <point x="996" y="1332" type="curve" smooth="yes"/>
      <point x="996" y="1611"/>
      <point x="846" y="1807"/>
      <point x="556" y="1816" type="curve"/>
      <point x="556" y="1551" type="line"/>
      <point x="661" y="1539"/>
      <point x="690" y="1448"/>
      <point x="690" y="1333" type="curve" smooth="yes"/>
      <point x="690" y="1145"/>
      <point x="601" y="1103"/>
      <point x="441" y="1103" type="curve"/>
      <point x="441" y="802" type="line"/>
      <point x="616" y="802"/>
      <point x="690" y="688"/>
      <point x="690" y="514" type="curve" smooth="yes"/>
      <point x="690" y="381"/>
      <point x="676" y="246"/>
      <point x="556" y="233" type="curve"/>
    </contour>
  </outline>
</glyph>
<glyph name="five" format="1">
  <advance width="1093"/>
  <unicode hex="0035"/>
  <outline>
    <contour>
      <point x="473" y="1490" type="line"/>
      <point x="958" y="1490" type="line"/>
      <point x="958" y="1782" type="line"/>
      <point x="473" y="1782" type="line"/>
    </contour>
    <contour>
      <point x="473" y="869" type="line"/>
      <point x="501" y="894"/>
      <point x="535" y="911"/>
      <point x="571" y="911" type="curve" smooth="yes"/>
      <point x="706" y="911"/>
      <point x="728" y="759"/>
      <point x="728" y="617" type="curve" smooth="yes"/>
      <point x="728" y="462"/>
      <point x="722" y="251"/>
      <point x="583" y="226" type="curve"/>
      <point x="583" y="-33" type="line"/>
      <point x="943" y="-23"/>
      <point x="1026" y="292"/>
      <point x="1026" y="614" type="curve" smooth="yes"/>
      <point x="1026" y="899"/>
      <point x="938" y="1161"/>
      <point x="623" y="1161" type="curve" smooth="yes"/>
      <point x="569" y="1161"/>
      <point x="519" y="1147"/>
      <point x="473" y="1123" type="curve"/>
    </contour>
    <contour>
      <point x="146" y="1782" type="line"/>
      <point x="146" y="771" type="line"/>
      <point x="423" y="771" type="line"/>
      <point x="423" y="1782" type="line"/>
    </contour>
    <contour>
      <point x="533" y="224" type="line"/>
      <point x="431" y="237"/>
      <point x="417" y="357"/>
      <point x="417" y="542" type="curve"/>
      <point x="114" y="540" type="line"/>
      <point x="114" y="230"/>
      <point x="206" y="-15"/>
      <point x="533" y="-32" type="curve"/>
    </contour>
  </outline>
</glyph>
<glyph name="six" format="1">
  <advance width="1090"/>
  <unicode hex="0036"/>
  <outline>
    <contour>
      <point x="401" y="1196" type="line" smooth="yes"/>
      <point x="401" y="1349"/>
      <point x="421" y="1530"/>
      <point x="534" y="1549" type="curve"/>
      <point x="534" y="1814" type="line"/>
      <point x="191" y="1800"/>
      <point x="95" y="1492"/>
      <point x="95" y="1203" type="curve" smooth="yes"/>
      <point x="95" y="537" type="line" smooth="yes"/>
      <point x="95" y="253"/>
      <point x="220" y="-16"/>
      <point x="534" y="-29" type="curve"/>
      <point x="534" y="234" type="line"/>
      <point x="427" y="252"/>
      <point x="401" y="391"/>
      <point x="401" y="523" type="curve" smooth="yes"/>
    </contour>
    <contour>
      <point x="451" y="817" type="line"/>
      <point x="482" y="836"/>
      <point x="521" y="848"/>
      <point x="560" y="848" type="curve" smooth="yes"/>
      <point x="701" y="848"/>
      <point x="721" y="699"/>
      <point x="721" y="558" type="curve" smooth="yes"/>
      <point x="721" y="430"/>
      <point x="709" y="253"/>
      <point x="584" y="234" type="curve"/>
      <point x="584" y="-28" type="line"/>
      <point x="906" y="-13"/>
      <point x="1026" y="270"/>
      <point x="1026" y="566" type="curve" smooth="yes"/>
      <point x="1026" y="854"/>
      <point x="937" y="1102"/>
      <point x="615" y="1102" type="curve" smooth="yes"/>
      <point x="558" y="1102"/>
      <point x="501" y="1092"/>
      <point x="451" y="1071" type="curve"/>
    </contour>
    <contour>
      <point x="584" y="1548" type="line"/>
      <point x="677" y="1527"/>
      <point x="698" y="1408"/>
      <point x="699" y="1285" type="curve"/>
      <point x="994" y="1285" type="line"/>
      <point x="994" y="1316" type="line" smooth="yes"/>
      <point x="994" y="1584"/>
      <point x="862" y="1801"/>
      <point x="584" y="1814" type="curve"/>
    </contour>
  </outline>
</glyph>
<glyph name="seven" format="1">
  <advance width="805"/>
  <unicode hex="0037"/>
  <outline>
    <contour>
      <point x="483" y="1782" type="line"/>
      <point x="31" y="1782" type="line"/>
      <point x="31" y="1516" type="line"/>
      <point x="427" y="1516" type="line"/>
    </contour>
    <contour>
      <point x="154" y="0" type="line"/>
      <point x="427" y="0" type="line"/>
      <point x="782" y="1617" type="line"/>
      <point x="782" y="1782" type="line"/>
      <point x="534" y="1782" type="line"/>
    </contour>
  </outline>
</glyph>
<glyph name="eight" format="1">
  <advance width="1094"/>
  <unicode hex="0038"/>
  <outline>
    <contour>
      <point x="530" y="217" type="line"/>
      <point x="404" y="231"/>
      <point x="388" y="364"/>
      <point x="388" y="497" type="curve" smooth="yes"/>
      <point x="388" y="622"/>
      <point x="410" y="787"/>
      <point x="530" y="811" type="curve"/>
      <point x="530" y="1055" type="line"/>
      <point x="425" y="1080"/>
      <point x="412" y="1239"/>
      <point x="412" y="1356" type="curve" smooth="yes"/>
      <point x="412" y="1453"/>
      <point x="436" y="1558"/>
      <point x="530" y="1573" type="curve"/>
      <point x="530" y="1816" type="line"/>
      <point x="241" y="1806"/>
      <point x="108" y="1609"/>
      <point x="108" y="1332" type="curve" smooth="yes"/>
      <point x="108" y="1173"/>
      <point x="158" y="1030"/>
      <point x="263" y="943" type="curve"/>
      <point x="136" y="850"/>
      <point x="91" y="708"/>
      <point x="91" y="513" type="curve" smooth="yes"/>
      <point x="91" y="202"/>
      <point x="202" y="-20"/>
      <point x="530" y="-30" type="curve"/>
    </contour>
    <contour>
      <point x="580" y="-30" type="line"/>
      <point x="908" y="-19"/>
      <point x="1021" y="202"/>
      <point x="1021" y="513" type="curve" smooth="yes"/>
      <point x="1021" y="709"/>
      <point x="973" y="850"/>
      <point x="847" y="943" type="curve"/>
      <point x="954" y="1030"/>
      <point x="1001" y="1173"/>
      <point x="1001" y="1332" type="curve" smooth="yes"/>
      <point x="1001" y="1609"/>
      <point x="870" y="1806"/>
      <point x="580" y="1816" type="curve"/>
      <point x="580" y="1573" type="line"/>
      <point x="676" y="1558"/>
      <point x="699" y="1451"/>
      <point x="699" y="1356" type="curve" smooth="yes"/>
      <point x="699" y="1239"/>
      <point x="687" y="1078"/>
      <point x="580" y="1055" type="curve"/>
      <point x="580" y="811" type="line"/>
      <point x="703" y="788"/>
      <point x="723" y="622"/>
      <point x="723" y="497" type="curve" smooth="yes"/>
      <point x="723" y="365"/>
      <point x="705" y="232"/>
      <point x="580" y="217" type="curve"/>
    </contour>
  </outline>
</glyph>
<glyph name="nine" format="1">
  <advance width="1108"/>
  <unicode hex="0039"/>
  <outline>
    <contour>
      <point x="713" y="1259" type="curve"/>
      <point x="713" y="623" type="line" smooth="yes"/>
      <point x="713" y="487"/>
      <point x="707" y="259"/>
      <point x="583" y="234" type="curve"/>
      <point x="583" y="-28" type="line"/>
      <point x="925" y="-11"/>
      <point x="1018" y="307"/>
      <point x="1018" y="610" type="curve" smooth="yes"/>
      <point x="1018" y="1216" type="line" smooth="yes"/>
      <point x="1018" y="1512"/>
      <point x="893" y="1798"/>
      <point x="583" y="1814" type="curve"/>
      <point x="583" y="1548" type="line"/>
      <point x="687" y="1527"/>
      <point x="713" y="1390"/>
    </contour>
    <contour>
      <point x="663" y="963" type="line"/>
      <point x="631" y="944"/>
      <point x="590" y="932"/>
      <point x="552" y="932" type="curve" smooth="yes"/>
      <point x="410" y="932"/>
      <point x="393" y="1092"/>
      <point x="393" y="1230" type="curve" smooth="yes"/>
      <point x="393" y="1361"/>
      <point x="408" y="1533"/>
      <point x="533" y="1550" type="curve"/>
      <point x="533" y="1815" type="line"/>
      <point x="209" y="1802"/>
      <point x="87" y="1513"/>
      <point x="87" y="1217" type="curve" smooth="yes"/>
      <point x="87" y="930"/>
      <point x="178" y="682"/>
      <point x="504" y="682" type="curve" smooth="yes"/>
      <point x="561" y="682"/>
      <point x="614" y="691"/>
      <point x="663" y="709" type="curve"/>
    </contour>
    <contour>
      <point x="533" y="234" type="line"/>
      <point x="427" y="250"/>
      <point x="409" y="372"/>
      <point x="407" y="497" type="curve"/>
      <point x="111" y="497" type="line"/>
      <point x="111" y="468" type="line"/>
      <point x="118" y="197"/>
      <point x="244" y="-19"/>
      <point x="533" y="-29" type="curve"/>
    </contour>
  </outline>
</glyph>
<glyph name="colon" format="1">
  <advance width="497"/>
  <unicode hex="003A"/>
  <outline>
    <contour>
      <point x="105" y="878" type="line"/>
      <point x="395" y="878" type="line"/>
      <point x="395" y="1164" type="line"/>
      <point x="105" y="1164" type="line"/>
    </contour>
    <contour>
      <point x="105" y="179" type="line"/>
      <point x="395" y="179" type="line"/>
      <point x="395" y="463" type="line"/>
      <point x="105" y="463" type="line"/>
    </contour>
  </outline>
</glyph>
<glyph name="semicolon" format="1">
  <advance width="490"/>
  <unicode hex="003B"/>
  <outline>
    <contour>
      <point x="95" y="878" type="line"/>
      <point x="386" y="878" type="line"/>
      <point x="386" y="1164" type="line"/>
      <point x="95" y="1164" type="line"/>
    </contour>
    <contour>
      <point x="158" y="-74" type="line"/>
      <point x="172" y="-76"/>
      <point x="185" y="-76"/>
      <point x="197" y="-76" type="curve" smooth="yes"/>
      <point x="374" y="-76"/>
      <point x="386" y="89"/>
      <point x="386" y="322" type="curve" smooth="yes"/>
      <point x="386" y="365"/>
      <point x="386" y="411"/>
      <point x="386" y="459" type="curve"/>
      <point x="94" y="459" type="line"/>
      <point x="94" y="172" type="line"/>
      <point x="208" y="172" type="line"/>
      <point x="207" y="96"/>
      <point x="198" y="75"/>
      <point x="121" y="67" type="curve"/>
    </contour>
  </outline>
</glyph>
<glyph name="equal" format="1">
  <advance width="759"/>
  <unicode hex="003D"/>
  <outline>
    <contour>
      <point x="83" y="581" type="line"/>
      <point x="671" y="581" type="line"/>
      <point x="671" y="780" type="line"/>
      <point x="83" y="780" type="line"/>
    </contour>
    <contour>
      <point x="83" y="257" type="line"/>
      <point x="671" y="257" type="line"/>
      <point x="671" y="455" type="line"/>
      <point x="83" y="455" type="line"/>
    </contour>
  </outline>
</glyph>
<glyph name="greater" format="1">
  <advance width="834"/>
  <unicode hex="003E"/>
  <outline>
    <contour>
      <point x="112" y="62" type="line"/>
      <point x="764" y="518" type="line"/>
      <point x="764" y="779" type="line"/>
      <point x="732" y="801"/>
      <point x="112" y="1236"/>
      <point x="112" y="1236" type="curve"/>
      <point x="112" y="971" type="line"/>
      <point x="157" y="939"/>
      <point x="518" y="682"/>
      <point x="563" y="650" type="curve"/>
      <point x="112" y="326" type="line"/>
    </contour>
  </outline>
</glyph>
<glyph name="question" format="1">
  <advance width="950"/>
  <unicode hex="003F"/>
  <outline>
    <contour>
      <point x="449" y="1815" type="line"/>
      <point x="182" y="1805"/>
      <point x="43" y="1632"/>
      <point x="43" y="1389" type="curve" smooth="yes"/>
      <point x="43" y="1338"/>
      <point x="51" y="1250"/>
      <point x="66" y="1194" type="curve"/>
      <point x="339" y="1240" type="line"/>
      <point x="330" y="1271"/>
      <point x="325" y="1337"/>
      <point x="325" y="1368" type="curve" smooth="yes"/>
      <point x="325" y="1468"/>
      <point x="370" y="1544"/>
      <point x="449" y="1558" type="curve"/>
    </contour>
    <contour>
      <point x="499" y="1558" type="line"/>
      <point x="576" y="1548"/>
      <point x="628" y="1492"/>
      <point x="628" y="1383" type="curve" smooth="yes"/>
      <point x="628" y="1100"/>
      <point x="268" y="930"/>
      <point x="268" y="631" type="curve" smooth="yes"/>
      <point x="268" y="534" type="line"/>
      <point x="558" y="534" type="line"/>
      <point x="558" y="605" type="line" smooth="yes"/>
      <point x="558" y="834"/>
      <point x="920" y="1053"/>
      <point x="920" y="1368" type="curve" smooth="yes"/>
      <point x="920" y="1650"/>
      <point x="756" y="1805"/>
      <point x="499" y="1815" type="curve"/>
    </contour>
    <contour>
      <point x="263" y="0" type="line"/>
      <point x="563" y="0" type="line"/>
      <point x="563" y="292" type="line"/>
      <point x="263" y="292" type="line"/>
    </contour>
  </outline>
</glyph>
<glyph name="at" format="1">
  <advance width="1662"/>
  <unicode hex="0040"/>
  <outline>
    <contour>
      <point x="1253" y="330" type="line"/>
      <point x="1482" y="343"/>
      <point x="1592" y="560"/>
      <point x="1592" y="813" type="curve" smooth="yes"/>
      <point x="1592" y="1293"/>
      <point x="1356" y="1602"/>
      <point x="905" y="1628" type="curve"/>
      <point x="905" y="1427" type="line"/>
      <point x="1222" y="1401"/>
      <point x="1335" y="1179"/>
      <point x="1335" y="811" type="curve" smooth="yes"/>
      <point x="1335" y="715"/>
      <point x="1319" y="576"/>
      <point x="1253" y="547" type="curve"/>
    </contour>
    <contour>
      <point x="1203" y="544" type="line"/>
      <point x="1163" y="554"/>
      <point x="1160" y="599"/>
      <point x="1160" y="636" type="curve" smooth="yes"/>
      <point x="1160" y="644"/>
      <point x="1160" y="651"/>
      <point x="1160" y="658" type="curve" smooth="yes"/>
      <point x="1160" y="1241" type="line"/>
      <point x="905" y="1241" type="line"/>
      <point x="905" y="576" type="line"/>
      <point x="978" y="394" type="line"/>
      <point x="1046" y="336"/>
      <point x="1139" y="330"/>
      <point x="1203" y="329" type="curve"/>
    </contour>
    <contour>
      <point x="885" y="110" type="line"/>
      <point x="491" y="128"/>
      <point x="337" y="370"/>
      <point x="337" y="807" type="curve" smooth="yes"/>
      <point x="337" y="1205"/>
      <point x="537" y="1430"/>
      <point x="854" y="1430" type="curve"/>
      <point x="854" y="1630" type="line"/>
      <point x="374" y="1630"/>
      <point x="81" y="1305"/>
      <point x="81" y="808" type="curve" smooth="yes"/>
      <point x="81" y="221"/>
      <point x="324" y="-75"/>
      <point x="885" y="-91" type="curve"/>
    </contour>
    <contour>
      <point x="855" y="1226" type="line"/>
      <point x="827" y="1241"/>
      <point x="792" y="1249"/>
      <point x="762" y="1249" type="curve" smooth="yes"/>
      <point x="534" y="1249"/>
      <point x="461" y="965"/>
      <point x="461" y="743" type="curve" smooth="yes"/>
      <point x="461" y="557"/>
      <point x="557" y="329"/>
      <point x="780" y="329" type="curve" smooth="yes"/>
      <point x="829" y="329"/>
      <point x="886" y="335"/>
      <point x="935" y="355" type="curve"/>
      <point x="854" y="547" type="line"/>
      <point x="844" y="544"/>
      <point x="834" y="542"/>
      <point x="823" y="542" type="curve" smooth="yes"/>
      <point x="732" y="542"/>
      <point x="717" y="654"/>
      <point x="717" y="754" type="curve" smooth="yes"/>
      <point x="717" y="866"/>
      <point x="719" y="1045"/>
      <point x="843" y="1045" type="curve" smooth="yes"/>
      <point x="847" y="1045"/>
      <point x="851" y="1045"/>
      <point x="855" y="1044" type="curve"/>
    </contour>
  </outline>
</glyph>
<glyph name="A" format="1">
  <advance width="1100"/>
  <unicode hex="0041"/>
  <outline>
    <contour>
      <point x="572" y="1135" type="line"/>
      <point x="770" y="0" type="line"/>
      <point x="1075" y="0" type="line"/>
      <point x="697" y="1782" type="line"/>
      <point x="455" y="1782" type="line"/>
    </contour>
    <contour>
      <point x="373" y="1662" type="line"/>
      <point x="25" y="0" type="line"/>
      <point x="338" y="0" type="line"/>
      <point x="415" y="399" type="line"/>
      <point x="588" y="399" type="line"/>
      <point x="561" y="584" type="line"/>
      <point x="438" y="584" type="line"/>
      <point x="492" y="932" type="line"/>
    </contour>
    <contour>
      <point x="550" y="1782" type="move" name="top"/>
    </contour>
  </outline>
</glyph>
<glyph name="B" format="1">
  <advance width="1115"/>
  <unicode hex="0042"/>
  <outline>
    <contour>
      <point x="544" y="856" type="line"/>
      <point x="553" y="856" type="line" smooth="yes"/>
      <point x="725" y="856"/>
      <point x="771" y="723"/>
      <point x="771" y="546" type="curve" smooth="yes"/>
      <point x="771" y="338"/>
      <point x="741" y="226"/>
      <point x="552" y="226" type="curve" smooth="yes"/>
      <point x="544" y="226" type="line"/>
      <point x="544" y="0" type="line"/>
      <point x="582" y="0" type="line" smooth="yes"/>
      <point x="932" y="0"/>
      <point x="1079" y="184"/>
      <point x="1079" y="527" type="curve" smooth="yes"/>
      <point x="1079" y="734"/>
      <point x="1001" y="914"/>
      <point x="781" y="973" type="curve"/>
      <point x="949" y="1033"/>
      <point x="1034" y="1144"/>
      <point x="1034" y="1324" type="curve" smooth="yes"/>
      <point x="1034" y="1674"/>
      <point x="856" y="1782"/>
      <point x="548" y="1782" type="curve" smooth="yes"/>
      <point x="544" y="1782" type="line"/>
      <point x="544" y="1567" type="line"/>
      <point x="554" y="1567" type="line" smooth="yes"/>
      <point x="692" y="1567"/>
      <point x="740" y="1537"/>
      <point x="740" y="1330" type="curve" smooth="yes"/>
      <point x="740" y="1188"/>
      <point x="707" y="1067"/>
      <point x="565" y="1067" type="curve" smooth="yes"/>
      <point x="544" y="1067" type="line"/>
    </contour>
    <contour>
      <point x="432" y="0" type="line"/>
      <point x="432" y="1782" type="line"/>
      <point x="116" y="1782" type="line"/>
      <point x="116" y="0" type="line"/>
    </contour>
  </outline>
</glyph>
<glyph name="E" format="1">
  <advance width="871"/>
  <unicode hex="0045"/>
  <outline>
    <contour>
      <point x="432" y="0" type="line"/>
      <point x="432" y="1782" type="line"/>
      <point x="116" y="1782" type="line"/>
      <point x="116" y="0" type="line"/>
    </contour>
    <contour>
      <point x="482" y="0" type="line"/>
      <point x="833" y="0" type="line"/>
      <point x="833" y="221" type="line"/>
      <point x="482" y="221" type="line"/>
    </contour>
    <contour>
      <point x="482" y="1561" type="line"/>
      <point x="833" y="1561" type="line"/>
      <point x="833" y="1782" type="line"/>
      <point x="482" y="1782" type="line"/>
    </contour>
    <contour>
      <point x="482" y="810" type="line"/>
      <point x="717" y="810" type="line"/>
      <point x="717" y="1035" type="line"/>
      <point x="482" y="1035" type="line"/>
    </contour>
    <contour>
      <point x="463" y="1796" type="move" name="top"/>
    </contour>
  </outline>
</glyph>
<glyph name="F" format="1">
  <advance width="842"/>
  <unicode hex="0046"/>
  <outline>
    <contour>
      <point x="432" y="0" type="line"/>
      <point x="432" y="1782" type="line"/>
      <point x="116" y="1782" type="line"/>
      <point x="116" y="0" type="line"/>
    </contour>
    <contour>
      <point x="482" y="1561" type="line"/>
      <point x="833" y="1561" type="line"/>
      <point x="833" y="1782" type="line"/>
      <point x="482" y="1782" type="line"/>
    </contour>
    <contour>
      <point x="482" y="810" type="line"/>
      <point x="717" y="810" type="line"/>
      <point x="717" y="1035" type="line"/>
      <point x="482" y="1035" type="line"/>
    </contour>
  </outline>
</glyph>
<glyph name="G" format="1">
  <advance width="1211"/>
  <unicode hex="0047"/>
  <outline>
    <contour>
      <point x="628" y="1568" type="line"/>
      <point x="781" y="1552"/>
      <point x="794" y="1382"/>
      <point x="794" y="1236" type="curve" smooth="yes"/>
      <point x="794" y="1136" type="line"/>
      <point x="1099" y="1136" type="line"/>
      <point x="1099" y="1221" type="line" smooth="yes"/>
      <point x="1099" y="1552"/>
      <point x="982" y="1805"/>
      <point x="628" y="1815" type="curve"/>
    </contour>
    <contour>
      <point x="623" y="-25" type="line"/>
      <point x="720" y="-4"/>
      <point x="809" y="54"/>
      <point x="855" y="135" type="curve"/>
      <point x="901" y="0" type="line"/>
      <point x="1110" y="0" type="line"/>
      <point x="1110" y="903" type="line"/>
      <point x="665" y="903" type="line"/>
      <point x="665" y="674" type="line"/>
      <point x="794" y="674" type="line"/>
      <point x="794" y="497" type="line" smooth="yes"/>
      <point x="794" y="378"/>
      <point x="767" y="225"/>
      <point x="623" y="213" type="curve"/>
    </contour>
    <contour>
      <point x="574" y="214" type="line"/>
      <point x="436" y="232"/>
      <point x="408" y="370"/>
      <point x="408" y="490" type="curve" smooth="yes"/>
      <point x="408" y="1285" type="line" smooth="yes"/>
      <point x="408" y="1408"/>
      <point x="440" y="1550"/>
      <point x="578" y="1567" type="curve"/>
      <point x="578" y="1814" type="line"/>
      <point x="206" y="1801"/>
      <point x="92" y="1533"/>
      <point x="92" y="1200" type="curve" smooth="yes"/>
      <point x="92" y="545" type="line" smooth="yes"/>
      <point x="92" y="292"/>
      <point x="192" y="-33"/>
      <point x="548" y="-33" type="curve" smooth="yes"/>
      <point x="557" y="-33"/>
      <point x="565" y="-33"/>
      <point x="574" y="-32" type="curve"/>
    </contour>
  </outline>
</glyph>
<glyph name="I" format="1">
  <advance width="548"/>
  <unicode hex="0049"/>
  <outline>
    <contour>
      <point x="115" y="0" type="line"/>
      <point x="432" y="0" type="line"/>
      <point x="432" y="1782" type="line"/>
      <point x="115" y="1782" type="line"/>
    </contour>
    <contour>
      <point x="276" y="1782" type="move" name="top"/>
    </contour>
  </outline>
</glyph>
<glyph name="K" format="1">
  <advance width="1147"/>
  <unicode hex="004B"/>
  <outline>
    <contour>
      <point x="482" y="857" type="line"/>
      <point x="815" y="0" type="line"/>
      <point x="1144" y="0" type="line"/>
      <point x="741" y="981" type="line"/>
      <point x="1105" y="1782" type="line"/>
      <point x="754" y="1782" type="line"/>
      <point x="482" y="1094" type="line"/>
    </contour>
    <contour>
      <point x="432" y="0" type="line"/>
      <point x="432" y="1782" type="line"/>
      <point x="116" y="1782" type="line"/>
      <point x="116" y="0" type="line"/>
    </contour>
    <contour>
      <point x="612" y="0" type="move" name="bot"/>
    </contour>
  </outline>
</glyph>
<glyph name="L" format="1">
  <advance width="837"/>
  <unicode hex="004C"/>
  <outline>
    <contour>
      <point x="432" y="0" type="line"/>
      <point x="432" y="1782" type="line"/>
      <point x="116" y="1782" type="line"/>
      <point x="116" y="0" type="line"/>
    </contour>
    <contour>
      <point x="482" y="0" type="line"/>
      <point x="818" y="0" type="line"/>
      <point x="818" y="221" type="line"/>
      <point x="482" y="221" type="line"/>
    </contour>
  </outline>
</glyph>
<glyph name="M" format="1">
  <advance width="1518"/>
  <unicode hex="004D"/>
  <outline>
    <contour>
      <point x="429" y="1781" type="line"/>
      <point x="411" y="1781" type="line"/>
      <point x="411" y="871" type="line"/>
      <point x="655" y="0" type="line"/>
      <point x="870" y="0" type="line"/>
    </contour>
    <contour>
      <point x="887" y="141" type="line"/>
      <point x="1107" y="871" type="line"/>
      <point x="1107" y="1781" type="line"/>
      <point x="1086" y="1781" type="line"/>
      <point x="784" y="562" type="line"/>
    </contour>
    <contour>
      <point x="361" y="0" type="line"/>
      <point x="361" y="1782" type="line"/>
      <point x="116" y="1782" type="line"/>
      <point x="116" y="0" type="line"/>
    </contour>
    <contour>
      <point x="1402" y="0" type="line"/>
      <point x="1402" y="1782" type="line"/>
      <point x="1157" y="1782" type="line"/>
      <point x="1157" y="0" type="line"/>
    </contour>
  </outline>
</glyph>
<glyph name="N" format="1">
  <advance width="1183"/>
  <unicode hex="004E"/>
  <outline>
    <contour>
      <point x="598" y="1782" type="move" name="top"/>
    </contour>
    <contour>
      <point x="116" y="1783" type="line"/>
      <point x="116" y="0" type="line"/>
      <point x="388" y="0" type="line"/>
      <point x="388" y="1679" type="line"/>
      <point x="345" y="1783" type="line"/>
    </contour>
    <contour>
      <point x="846" y="0" type="line"/>
      <point x="1067" y="0" type="line"/>
      <point x="1067" y="1783" type="line"/>
      <point x="804" y="1783" type="line"/>
      <point x="804" y="105" type="line"/>
    </contour>
    <contour>
      <point x="438" y="949" type="line"/>
      <point x="754" y="231" type="line"/>
      <point x="754" y="868" type="line"/>
      <point x="438" y="1558" type="line"/>
    </contour>
  </outline>
</glyph>
<glyph name="P" format="1">
  <advance width="1028"/>
  <unicode hex="0050"/>
  <outline>
    <contour>
      <point x="432" y="1782" type="line"/>
      <point x="116" y="1782" type="line"/>
      <point x="116" y="0" type="line"/>
      <point x="432" y="0" type="line"/>
    </contour>
    <contour>
      <point x="482" y="1554" type="line"/>
      <point x="432" y="1554" type="line" smooth="yes"/>
      <point x="667" y="1554"/>
      <point x="685" y="1451"/>
      <point x="685" y="1288" type="curve" smooth="yes"/>
      <point x="685" y="1089"/>
      <point x="670" y="996"/>
      <point x="508" y="996" type="curve" smooth="yes"/>
      <point x="482" y="996" type="line"/>
      <point x="482" y="769" type="line"/>
      <point x="494" y="769" type="line" smooth="yes"/>
      <point x="817" y="770"/>
      <point x="987" y="908"/>
      <point x="987" y="1283" type="curve" smooth="yes"/>
      <point x="987" y="1585"/>
      <point x="868" y="1782"/>
      <point x="548" y="1782" type="curve" smooth="yes"/>
      <point x="482" y="1782" type="line"/>
    </contour>
  </outline>
</glyph>
<glyph name="R" format="1">
  <advance width="1119"/>
  <unicode hex="0052"/>
  <outline>
    <contour>
      <point x="482" y="831" type="line"/>
      <point x="553" y="831" type="line"/>
      <point x="760" y="0" type="line"/>
      <point x="1083" y="0" type="line"/>
      <point x="830" y="874" type="line"/>
      <point x="1045" y="969"/>
      <point x="1054" y="1153"/>
      <point x="1054" y="1315" type="curve" smooth="yes"/>
      <point x="1054" y="1640"/>
      <point x="863" y="1782"/>
      <point x="526" y="1782" type="curve" smooth="yes"/>
      <point x="482" y="1782" type="line"/>
      <point x="482" y="1548" type="line"/>
      <point x="595" y="1548" type="line" smooth="yes"/>
      <point x="719" y="1548"/>
      <point x="739" y="1383"/>
      <point x="739" y="1293" type="curve" smooth="yes"/>
      <point x="739" y="1205"/>
      <point x="716" y="1031"/>
      <point x="581" y="1031" type="curve" smooth="yes"/>
      <point x="482" y="1031" type="line"/>
    </contour>
    <contour>
      <point x="432" y="0" type="line"/>
      <point x="432" y="1782" type="line"/>
      <point x="116" y="1782" type="line"/>
      <point x="116" y="0" type="line"/>
    </contour>
    <contour>
      <point x="513" y="1782" type="move" name="top"/>
    </contour>
    <contour>
      <point x="555" y="0" type="move" name="bot"/>
    </contour>
  </outline>
</glyph>
<glyph name="T" format="1">
  <advance width="884"/>
  <unicode hex="0054"/>
  <outline>
    <contour>
      <point x="285" y="1494" type="line"/>
      <point x="285" y="0" type="line"/>
      <point x="602" y="0" type="line"/>
      <point x="602" y="1494" type="line"/>
    </contour>
    <contour>
      <point x="5" y="1544" type="line"/>
      <point x="879" y="1544" type="line"/>
      <point x="879" y="1782" type="line"/>
      <point x="5" y="1782" type="line"/>
    </contour>
  </outline>
</glyph>
<glyph name="U" format="1">
  <advance width="1223"/>
  <unicode hex="0055"/>
  <outline>
    <contour>
      <point x="615" y="1782" type="move" name="top"/>
    </contour>
    <contour>
      <point x="614" y="0" type="move" name="bot"/>
    </contour>
    <contour>
      <point x="639" y="-33" type="line"/>
      <point x="1053" y="-24"/>
      <point x="1117" y="277"/>
      <point x="1117" y="614" type="curve" smooth="yes"/>
      <point x="1117" y="1782" type="line"/>
      <point x="801" y="1782" type="line"/>
      <point x="801" y="615" type="line" smooth="yes"/>
      <point x="801" y="348"/>
      <point x="794" y="221"/>
      <point x="639" y="212" type="curve"/>
    </contour>
    <contour>
      <point x="589" y="213" type="line"/>
      <point x="443" y="228"/>
      <point x="423" y="354"/>
      <point x="423" y="615" type="curve" smooth="yes"/>
      <point x="423" y="1782" type="line"/>
      <point x="106" y="1782" type="line"/>
      <point x="106" y="614" type="line" smooth="yes"/>
      <point x="106" y="279"/>
      <point x="177" y="-22"/>
      <point x="589" y="-33" type="curve"/>
    </contour>
  </outline>
</glyph>
<glyph name="V" format="1">
  <advance width="1053"/>
  <unicode hex="0056"/>
  <outline>
    <contour>
      <point x="498" y="747" type="line"/>
      <point x="331" y="1782" type="line"/>
      <point x="27" y="1782" type="line"/>
      <point x="368" y="0" type="line"/>
    </contour>
    <contour>
      <point x="419" y="0" type="line"/>
      <point x="670" y="0" type="line"/>
      <point x="1026" y="1782" type="line"/>
      <point x="725" y="1782" type="line"/>
    </contour>
  </outline>
</glyph>
<glyph name="W" format="1">
  <advance width="1475"/>
  <unicode hex="0057"/>
  <outline>
    <contour>
      <point x="1185" y="0" type="line"/>
      <point x="1443" y="1782" type="line"/>
      <point x="1170" y="1782" type="line"/>
      <point x="1056" y="850" type="line"/>
    </contour>
    <contour>
      <point x="418" y="851" type="line"/>
      <point x="305" y="1782" type="line"/>
      <point x="32" y="1782" type="line"/>
      <point x="292" y="0" type="line"/>
      <point x="551" y="0" type="line"/>
    </contour>
    <contour>
      <point x="900" y="0" type="line"/>
      <point x="1136" y="0" type="line"/>
      <point x="1003" y="850" type="line"/>
      <point x="862" y="1782" type="line"/>
      <point x="622" y="1782" type="line"/>
    </contour>
    <contour>
      <point x="591" y="1649" type="line"/>
      <point x="469" y="852" type="line"/>
      <point x="586" y="97" type="line"/>
      <point x="700" y="964" type="line"/>
    </contour>
  </outline>
</glyph>
<glyph name="X" format="1">
  <advance width="1078"/>
  <unicode hex="0058"/>
  <outline>
    <contour>
      <point x="313" y="864" type="line"/>
      <point x="5" y="0" type="line"/>
      <point x="302" y="0" type="line"/>
      <point x="469" y="470" type="line"/>
    </contour>
    <contour>
      <point x="708" y="0" type="line"/>
      <point x="1042" y="0" type="line"/>
      <point x="336" y="1782" type="line"/>
      <point x="4" y="1782" type="line"/>
    </contour>
    <contour>
      <point x="724" y="940" type="line"/>
      <point x="1007" y="1782" type="line"/>
      <point x="704" y="1782" type="line"/>
      <point x="564" y="1341" type="line"/>
    </contour>
  </outline>
</glyph>
<glyph name="Y" format="1">
  <advance width="1002"/>
  <unicode hex="0059"/>
  <outline>
    <contour>
      <point x="654" y="339" type="line"/>
      <point x="293" y="1782" type="line"/>
      <point x="2" y="1782" type="line"/>
      <point x="346" y="581" type="line"/>
      <point x="346" y="0" type="line"/>
      <point x="654" y="0" type="line"/>
    </contour>
    <contour>
      <point x="654" y="546" type="line"/>
      <point x="1000" y="1782" type="line"/>
      <point x="654" y="1782" type="line"/>
      <point x="529" y="1052" type="line"/>
    </contour>
    <contour>
      <point x="501" y="1782" type="move" name="top"/>
    </contour>
  </outline>
</glyph>
<glyph name="bracketleft" format="1">
  <advance width="715"/>
  <unicode hex="005B"/>
  <outline>
    <contour>
      <point x="412" y="1878" type="line"/>
      <point x="155" y="1878" type="line"/>
      <point x="155" y="-64" type="line"/>
      <point x="412" y="-64" type="line"/>
    </contour>
    <contour>
      <point x="462" y="-64" type="line"/>
      <point x="653" y="-64" type="line"/>
      <point x="653" y="77" type="line"/>
      <point x="462" y="77" type="line"/>
    </contour>
    <contour>
      <point x="462" y="1738" type="line"/>
      <point x="653" y="1738" type="line"/>
      <point x="653" y="1878" type="line"/>
      <point x="462" y="1878" type="line"/>
    </contour>
  </outline>
</glyph>
<glyph name="asciicircum" format="1">
  <advance width="912"/>
  <unicode hex="005E"/>
  <outline>
    <contour>
      <point x="325" y="905" type="line"/>
      <point x="452" y="1261" type="line"/>
      <point x="452" y="1465" type="line"/>
      <point x="321" y="1465" type="line"/>
      <point x="321" y="1465"/>
      <point x="75" y="933"/>
      <point x="60" y="905" type="curve"/>
    </contour>
    <contour>
      <point x="894" y="905" type="line"/>
      <point x="879" y="933"/>
      <point x="633" y="1465"/>
      <point x="633" y="1465" type="curve"/>
      <point x="502" y="1465" type="line"/>
      <point x="502" y="1261" type="line"/>
      <point x="629" y="905" type="line"/>
    </contour>
  </outline>
</glyph>
<glyph name="underscore" format="1">
  <advance width="848"/>
  <unicode hex="005F"/>
  <outline>
    <contour>
      <point x="30" y="0" type="line"/>
      <point x="812" y="0" type="line"/>
      <point x="812" y="199" type="line"/>
      <point x="30" y="199" type="line"/>
    </contour>
  </outline>
</glyph>
<glyph name="grave" format="1">
  <advance width="595"/>
  <unicode hex="0060"/>
  <outline>
    <contour>
      <point x="377" y="1280" type="move" name="_top"/>
    </contour>
    <contour>
      <point x="243" y="1740" type="line"/>
      <point x="-61" y="1740" type="line"/>
      <point x="305" y="1378" type="line"/>
      <point x="516" y="1378" type="line"/>
    </contour>
  </outline>
</glyph>
<glyph name="a" format="1">
  <advance width="1100"/>
  <unicode hex="0061"/>
  <outline>
    <contour>
      <point x="550" y="1782" type="move" name="top"/>
    </contour>
    <contour>
      <point x="645" y="1782" type="line"/>
      <point x="403" y="1782" type="line"/>
      <point x="25" y="0" type="line"/>
      <point x="330" y="0" type="line"/>
      <point x="528" y="1135" type="line"/>
    </contour>
    <contour>
      <point x="576" y="1114" type="line"/>
      <point x="662" y="584" type="line"/>
      <point x="480" y="584" type="line"/>
      <point x="453" y="399" type="line"/>
      <point x="685" y="399" type="line"/>
      <point x="762" y="0" type="line"/>
      <point x="1075" y="0" type="line"/>
      <point x="697" y="1782" type="line"/>
    </contour>
  </outline>
</glyph>
<glyph name="b" format="1">
  <advance width="1115"/>
  <unicode hex="0062"/>
  <outline>
    <contour>
      <point x="482" y="856" type="line"/>
      <point x="521" y="856" type="line" smooth="yes"/>
      <point x="693" y="856"/>
      <point x="739" y="723"/>
      <point x="739" y="546" type="curve" smooth="yes"/>
      <point x="739" y="338"/>
      <point x="709" y="226"/>
      <point x="520" y="226" type="curve" smooth="yes"/>
      <point x="482" y="226" type="line"/>
      <point x="482" y="0" type="line"/>
      <point x="550" y="0" type="line" smooth="yes"/>
      <point x="900" y="0"/>
      <point x="1047" y="184"/>
      <point x="1047" y="527" type="curve" smooth="yes"/>
      <point x="1047" y="734"/>
      <point x="969" y="914"/>
      <point x="749" y="973" type="curve"/>
      <point x="917" y="1033"/>
      <point x="1002" y="1144"/>
      <point x="1002" y="1324" type="curve" smooth="yes"/>
      <point x="1002" y="1674"/>
      <point x="794" y="1782"/>
      <point x="486" y="1782" type="curve" smooth="yes"/>
      <point x="482" y="1782" type="line"/>
      <point x="482" y="1567" type="line"/>
      <point x="492" y="1567" type="line" smooth="yes"/>
      <point x="630" y="1567"/>
      <point x="708" y="1537"/>
      <point x="708" y="1330" type="curve" smooth="yes"/>
      <point x="708" y="1188"/>
      <point x="675" y="1067"/>
      <point x="533" y="1067" type="curve" smooth="yes"/>
      <point x="482" y="1067" type="line"/>
    </contour>
    <contour>
      <point x="432" y="0" type="line"/>
      <point x="432" y="1782" type="line"/>
      <point x="116" y="1782" type="line"/>
      <point x="116" y="0" type="line"/>
    </contour>
  </outline>
</glyph>
<glyph name="c" format="1">
  <advance width="1152"/>
  <unicode hex="0063"/>
  <outline>
    <contour>
      <point x="620" y="-33" type="line"/>
      <point x="974" y="-20"/>
      <point x="1073" y="259"/>
      <point x="1077" y="568" type="curve"/>
      <point x="1077" y="705" type="line"/>
      <point x="768" y="705" type="line"/>
      <point x="768" y="535" type="line" smooth="yes"/>
      <point x="768" y="388"/>
      <point x="747" y="232"/>
      <point x="620" y="214" type="curve"/>
    </contour>
    <contour>
      <point x="620" y="1567" type="line"/>
      <point x="749" y="1549"/>
      <point x="767" y="1390"/>
      <point x="767" y="1248" type="curve" smooth="yes"/>
      <point x="767" y="1096" type="line"/>
      <point x="1077" y="1096" type="line"/>
      <point x="1077" y="1232" type="line" smooth="yes"/>
      <point x="1077" y="1558"/>
      <point x="959" y="1803"/>
      <point x="620" y="1815" type="curve"/>
    </contour>
    <contour>
      <point x="570" y="1815" type="line"/>
      <point x="204" y="1803"/>
      <point x="92" y="1536"/>
      <point x="92" y="1202" type="curve" smooth="yes"/>
      <point x="92" y="578" type="line" smooth="yes"/>
      <point x="92" y="251"/>
      <point x="203" y="-21"/>
      <point x="570" y="-33" type="curve"/>
      <point x="570" y="213" type="line"/>
      <point x="434" y="228"/>
      <point x="408" y="374"/>
      <point x="408" y="501" type="curve" smooth="yes"/>
      <point x="408" y="1280" type="line" smooth="yes"/>
      <point x="408" y="1407"/>
      <point x="434" y="1553"/>
      <point x="570" y="1568" type="curve"/>
    </contour>
    <contour>
      <point x="594" y="1782" type="move" name="top"/>
    </contour>
  </outline>
</glyph>
<glyph name="h" format="1">
  <advance width="1187"/>
  <unicode hex="0068"/>
  <outline>
    <contour>
      <point x="753" y="1782" type="line"/>
      <point x="753" y="1012" type="line"/>
      <point x="482" y="1012" type="line"/>
      <point x="482" y="810" type="line"/>
      <point x="753" y="810" type="line"/>
      <point x="753" y="0" type="line"/>
      <point x="1072" y="0" type="line"/>
      <point x="1072" y="1782" type="line"/>
    </contour>
    <contour>
      <point x="433" y="1782" type="line"/>
      <point x="116" y="1782" type="line"/>
      <point x="116" y="0" type="line"/>
      <point x="432" y="0" type="line"/>
    </contour>
  </outline>
</glyph>
<glyph name="i" format="1">
  <advance width="548"/>
  <unicode hex="0069"/>
  <outline>
    <contour>
      <point x="276" y="1782" type="move" name="top"/>
    </contour>
    <contour>
      <point x="115" y="0" type="line"/>
      <point x="432" y="0" type="line"/>
      <point x="432" y="1782" type="line"/>
      <point x="115" y="1782" type="line"/>
    </contour>
  </outline>
</glyph>
<glyph name="j" format="1">
  <advance width="612"/>
  <unicode hex="006A"/>
  <outline>
    <contour>
      <point x="3" y="-26" type="line"/>
      <point x="99" y="-26" type="line" smooth="yes"/>
      <point x="440" y="-26"/>
      <point x="497" y="123"/>
      <point x="497" y="427" type="curve" smooth="yes"/>
      <point x="497" y="1782" type="line"/>
      <point x="181" y="1782" type="line"/>
      <point x="181" y="429" type="line" smooth="yes"/>
      <point x="181" y="226"/>
      <point x="149" y="198"/>
      <point x="3" y="198" type="curve"/>
    </contour>
  </outline>
</glyph>
<glyph name="m" format="1">
  <advance width="1518"/>
  <unicode hex="006D"/>
  <outline>
    <contour>
      <point x="1086" y="1781" type="line"/>
      <point x="759" y="449" type="line"/>
      <point x="429" y="1781" type="line"/>
      <point x="411" y="1781" type="line"/>
      <point x="411" y="871" type="line"/>
      <point x="674" y="0" type="line"/>
      <point x="844" y="0" type="line"/>
      <point x="1107" y="871" type="line"/>
      <point x="1107" y="1781" type="line"/>
    </contour>
    <contour>
      <point x="361" y="0" type="line"/>
      <point x="361" y="1782" type="line"/>
      <point x="116" y="1782" type="line"/>
      <point x="116" y="0" type="line"/>
    </contour>
    <contour>
      <point x="1402" y="0" type="line"/>
      <point x="1402" y="1782" type="line"/>
      <point x="1157" y="1782" type="line"/>
      <point x="1157" y="0" type="line"/>
    </contour>
  </outline>
</glyph>
<glyph name="o" format="1">
  <advance width="1198"/>
  <unicode hex="006F"/>
  <outline>
    <contour>
      <point x="573" y="1815" type="line"/>
      <point x="207" y="1803"/>
      <point x="92" y="1536"/>
      <point x="92" y="1202" type="curve" smooth="yes"/>
      <point x="92" y="571" type="line" smooth="yes"/>
      <point x="92" y="244"/>
      <point x="209" y="-22"/>
      <point x="573" y="-33" type="curve"/>
      <point x="573" y="213" type="line"/>
      <point x="436" y="228"/>
      <point x="408" y="373"/>
      <point x="408" y="500" type="curve" smooth="yes"/>
      <point x="408" y="1280" type="line" smooth="yes"/>
      <point x="408" y="1407"/>
      <point x="437" y="1553"/>
      <point x="573" y="1568" type="curve"/>
    </contour>
    <contour>
      <point x="623" y="1568" type="line"/>
      <point x="760" y="1553"/>
      <point x="789" y="1408"/>
      <point x="789" y="1280" type="curve" smooth="yes"/>
      <point x="789" y="500" type="line" smooth="yes"/>
      <point x="789" y="371"/>
      <point x="761" y="228"/>
      <point x="623" y="213" type="curve"/>
      <point x="623" y="-33" type="line"/>
      <point x="990" y="-21"/>
      <point x="1106" y="251"/>
      <point x="1106" y="578" type="curve" smooth="yes"/>
      <point x="1106" y="1202" type="line" smooth="yes"/>
      <point x="1106" y="1537"/>
      <point x="989" y="1803"/>
      <point x="623" y="1815" type="curve"/>
    </contour>
    <contour>
      <point x="599" y="1782" type="move" name="top"/>
    </contour>
  </outline>
</glyph>
<glyph name="q" format="1">
  <advance width="1205"/>
  <unicode hex="0071"/>
  <outline>
    <contour>
      <point x="575" y="214" type="line"/>
      <point x="440" y="231"/>
      <point x="408" y="373"/>
      <point x="408" y="501" type="curve" smooth="yes"/>
      <point x="408" y="1280" type="line" smooth="yes"/>
      <point x="408" y="1407"/>
      <point x="440" y="1550"/>
      <point x="575" y="1567" type="curve"/>
      <point x="575" y="1815" type="line"/>
      <point x="209" y="1803"/>
      <point x="92" y="1537"/>
      <point x="92" y="1202" type="curve" smooth="yes"/>
      <point x="92" y="571" type="line" smooth="yes"/>
      <point x="92" y="230"/>
      <point x="230" y="-24"/>
      <point x="575" y="-35" type="curve"/>
    </contour>
    <contour>
      <point x="625" y="-35" type="line"/>
      <point x="651" y="-34"/>
      <point x="679" y="-31"/>
      <point x="705" y="-27" type="curve"/>
      <point x="767" y="-117"/>
      <point x="868" y="-225"/>
      <point x="1084" y="-229" type="curve"/>
      <point x="1084" y="-32" type="line"/>
      <point x="1052" y="-29"/>
      <point x="937" y="-18"/>
      <point x="900" y="46" type="curve"/>
      <point x="1061" y="172"/>
      <point x="1111" y="376"/>
      <point x="1111" y="578" type="curve" smooth="yes"/>
      <point x="1111" y="1202" type="line" smooth="yes"/>
      <point x="1111" y="1539"/>
      <point x="995" y="1806"/>
      <point x="625" y="1815" type="curve"/>
      <point x="625" y="1568" type="line"/>
      <point x="765" y="1555"/>
      <point x="795" y="1410"/>
      <point x="795" y="1280" type="curve" smooth="yes"/>
      <point x="795" y="501" type="line" smooth="yes"/>
      <point x="795" y="369"/>
      <point x="770" y="224"/>
      <point x="625" y="213" type="curve"/>
    </contour>
  </outline>
</glyph>
<glyph name="s" format="1">
  <advance width="1054"/>
  <unicode hex="0073"/>
  <outline>
    <contour>
      <point x="557" y="1569" type="line"/>
      <point x="642" y="1546"/>
      <point x="671" y="1437"/>
      <point x="676" y="1346" type="curve"/>
      <point x="676" y="1325"/>
      <point x="674" y="1304"/>
      <point x="674" y="1286" type="curve"/>
      <point x="995" y="1336" type="line"/>
      <point x="995" y="1373" type="line"/>
      <point x="985" y="1622"/>
      <point x="802" y="1811"/>
      <point x="557" y="1816" type="curve"/>
    </contour>
    <contour>
      <point x="520" y="214" type="line"/>
      <point x="409" y="244"/>
      <point x="384" y="408"/>
      <point x="379" y="557" type="curve"/>
      <point x="62" y="493" type="line"/>
      <point x="80" y="230"/>
      <point x="217" y="-18"/>
      <point x="520" y="-34" type="curve"/>
    </contour>
    <contour>
      <point x="614" y="1037" type="line"/>
      <point x="580" y="1069"/>
      <point x="545" y="1102"/>
      <point x="526" y="1119" type="curve" smooth="yes"/>
      <point x="441" y="1194"/>
      <point x="375" y="1278"/>
      <point x="375" y="1399" type="curve" smooth="yes"/>
      <point x="375" y="1487"/>
      <point x="418" y="1563"/>
      <point x="507" y="1572" type="curve"/>
      <point x="507" y="1815" type="line"/>
      <point x="243" y="1799"/>
      <point x="64" y="1632"/>
      <point x="64" y="1365" type="curve" smooth="yes"/>
      <point x="64" y="1135"/>
      <point x="196" y="1009"/>
      <point x="329" y="892" type="curve"/>
      <point x="401" y="824" type="line"/>
    </contour>
    <contour>
      <point x="437" y="791" type="line"/>
      <point x="477" y="754" type="line" smooth="yes"/>
      <point x="586" y="653"/>
      <point x="694" y="521"/>
      <point x="694" y="372" type="curve" smooth="yes"/>
      <point x="694" y="282"/>
      <point x="661" y="215"/>
      <point x="570" y="209" type="curve"/>
      <point x="570" y="-35" type="line"/>
      <point x="807" y="-27"/>
      <point x="1001" y="135"/>
      <point x="1001" y="385" type="curve" smooth="yes"/>
      <point x="1001" y="645"/>
      <point x="860" y="808"/>
      <point x="686" y="969" type="curve" smooth="yes"/>
      <point x="649" y="1002" type="line"/>
    </contour>
    <contour>
      <point x="532" y="1781" type="move" name="top"/>
    </contour>
  </outline>
</glyph>
<glyph name="t" format="1">
  <advance width="884"/>
  <unicode hex="0074"/>
  <outline>
    <contour>
      <point x="285" y="1494" type="line"/>
      <point x="285" y="0" type="line"/>
      <point x="602" y="0" type="line"/>
      <point x="602" y="1494" type="line"/>
    </contour>
    <contour>
      <point x="5" y="1544" type="line"/>
      <point x="879" y="1544" type="line"/>
      <point x="879" y="1782" type="line"/>
      <point x="5" y="1782" type="line"/>
    </contour>
  </outline>
</glyph>
<glyph name="v" format="1">
  <advance width="1053"/>
  <unicode hex="0076"/>
  <outline>
    <contour>
      <point x="498" y="747" type="line"/>
      <point x="331" y="1782" type="line"/>
      <point x="27" y="1782" type="line"/>
      <point x="368" y="0" type="line"/>
    </contour>
    <contour>
      <point x="419" y="0" type="line"/>
      <point x="670" y="0" type="line"/>
      <point x="1026" y="1782" type="line"/>
      <point x="725" y="1782" type="line"/>
    </contour>
  </outline>
</glyph>
<glyph name="z" format="1">
  <advance width="975"/>
  <unicode hex="007A"/>
  <outline>
    <contour>
      <point x="357" y="0" type="line"/>
      <point x="893" y="0" type="line"/>
      <point x="893" y="221" type="line"/>
      <point x="441" y="221" type="line"/>
    </contour>
    <contour>
      <point x="611" y="1782" type="line"/>
      <point x="134" y="1782" type="line"/>
      <point x="134" y="1560" type="line"/>
      <point x="527" y="1560" type="line"/>
    </contour>
    <contour>
      <point x="77" y="219" type="line"/>
      <point x="77" y="0" type="line"/>
      <point x="304" y="0" type="line"/>
      <point x="893" y="1572" type="line"/>
      <point x="893" y="1782" type="line"/>
      <point x="665" y="1782" type="line"/>
    </contour>
  </outline>
</glyph>
<glyph name="braceleft" format="1">
  <advance width="708"/>
  <unicode hex="007B"/>
  <outline>
    <contour>
      <point x="644" y="135" type="line"/>
      <point x="437" y="135"/>
      <point x="453" y="321"/>
      <point x="444" y="547" type="curve" smooth="yes"/>
      <point x="438" y="690"/>
      <point x="415" y="838"/>
      <point x="272" y="909" type="curve"/>
      <point x="420" y="993"/>
      <point x="446" y="1226"/>
      <point x="446" y="1380" type="curve" smooth="yes"/>
      <point x="446" y="1595"/>
      <point x="446" y="1681"/>
      <point x="644" y="1681" type="curve"/>
      <point x="644" y="1879" type="line"/>
      <point x="285" y="1879"/>
      <point x="192" y="1745"/>
      <point x="192" y="1367" type="curve" smooth="yes"/>
      <point x="192" y="1349"/>
      <point x="192" y="1326"/>
      <point x="192" y="1301" type="curve" smooth="yes"/>
      <point x="192" y="1192"/>
      <point x="181" y="1041"/>
      <point x="62" y="1041" type="curve"/>
      <point x="62" y="776" type="line"/>
      <point x="182" y="776"/>
      <point x="192" y="702"/>
      <point x="192" y="610" type="curve" smooth="yes"/>
      <point x="192" y="590"/>
      <point x="192" y="570"/>
      <point x="192" y="549" type="curve" smooth="yes"/>
      <point x="192" y="184"/>
      <point x="253" y="-62"/>
      <point x="644" y="-62" type="curve"/>
    </contour>
  </outline>
</glyph>
<glyph name="bar" format="1">
  <advance width="426"/>
  <unicode hex="007C"/>
  <outline>
    <contour>
      <point x="138" y="-130" type="line"/>
      <point x="336" y="-130" type="line"/>
      <point x="336" y="1922" type="line"/>
      <point x="138" y="1922" type="line"/>
    </contour>
  </outline>
</glyph>
<glyph name="braceright" format="1">
  <advance width="710"/>
  <unicode hex="007D"/>
  <outline>
    <contour>
      <point x="60" y="-62" type="line"/>
      <point x="451" y="-62"/>
      <point x="512" y="183"/>
      <point x="512" y="549" type="curve" smooth="yes"/>
      <point x="512" y="570"/>
      <point x="511" y="590"/>
      <point x="511" y="610" type="curve" smooth="yes"/>
      <point x="511" y="702"/>
      <point x="522" y="776"/>
      <point x="642" y="776" type="curve"/>
      <point x="642" y="1041" type="line"/>
      <point x="522" y="1041"/>
      <point x="511" y="1192"/>
      <point x="511" y="1301" type="curve" smooth="yes"/>
      <point x="511" y="1326"/>
      <point x="512" y="1349"/>
      <point x="512" y="1367" type="curve" smooth="yes"/>
      <point x="512" y="1746"/>
      <point x="419" y="1879"/>
      <point x="60" y="1879" type="curve"/>
      <point x="60" y="1681" type="line"/>
      <point x="257" y="1681"/>
      <point x="258" y="1595"/>
      <point x="258" y="1380" type="curve" smooth="yes"/>
      <point x="258" y="1229"/>
      <point x="285" y="990"/>
      <point x="432" y="909" type="curve"/>
      <point x="283" y="834"/>
      <point x="263" y="677"/>
      <point x="259" y="527" type="curve" smooth="yes"/>
      <point x="252" y="308"/>
      <point x="259" y="135"/>
      <point x="60" y="135" type="curve"/>
    </contour>
  </outline>
</glyph>
<glyph name="asciitilde" format="1">
  <advance width="980"/>
  <unicode hex="007E"/>
  <outline>
    <contour>
      <point x="297" y="868" type="line"/>
      <point x="298" y="899"/>
      <point x="303" y="936"/>
      <point x="337" y="936" type="curve" smooth="yes"/>
      <point x="401" y="936"/>
      <point x="515" y="850"/>
      <point x="623" y="850" type="curve" smooth="yes"/>
      <point x="790" y="850"/>
      <point x="844" y="1005"/>
      <point x="844" y="1131" type="curve"/>
      <point x="677" y="1131" type="line"/>
      <point x="676" y="1100"/>
      <point x="668" y="1062"/>
      <point x="634" y="1062" type="curve" smooth="yes"/>
      <point x="562" y="1062"/>
      <point x="454" y="1147"/>
      <point x="351" y="1147" type="curve" smooth="yes"/>
      <point x="187" y="1147"/>
      <point x="130" y="1002"/>
      <point x="130" y="868" type="curve"/>
    </contour>
  </outline>
</glyph>
<glyph name="exclamdown" format="1">
  <advance width="504"/>
  <unicode hex="00A1"/>
  <outline>
    <contour>
      <point x="105" y="1495" type="line"/>
      <point x="397" y="1495" type="line"/>
      <point x="397" y="1781" type="line"/>
      <point x="105" y="1781" type="line"/>
    </contour>
    <contour>
      <point x="100" y="0" type="line"/>
      <point x="410" y="0" type="line"/>
      <point x="301" y="1336" type="line"/>
      <point x="199" y="1336" type="line"/>
    </contour>
  </outline>
</glyph>
<glyph name="cent" format="1">
  <advance width="1152"/>
  <unicode hex="00A2"/>
  <outline>
    <contour>
      <point x="563" y="67" type="line"/>
      <point x="917" y="80"/>
      <point x="1016" y="359"/>
      <point x="1020" y="668" type="curve"/>
      <point x="1020" y="705" type="line"/>
      <point x="711" y="705" type="line"/>
      <point x="711" y="635" type="line" smooth="yes"/>
      <point x="711" y="488"/>
      <point x="690" y="332"/>
      <point x="563" y="314" type="curve"/>
    </contour>
    <contour>
      <point x="563" y="1367" type="line"/>
      <point x="692" y="1349"/>
      <point x="710" y="1190"/>
      <point x="710" y="1048" type="curve" smooth="yes"/>
      <point x="710" y="936" type="line"/>
      <point x="1020" y="936" type="line"/>
      <point x="1020" y="1032" type="line" smooth="yes"/>
      <point x="1020" y="1358"/>
      <point x="902" y="1603"/>
      <point x="563" y="1615" type="curve"/>
    </contour>
    <contour>
      <point x="513" y="1615" type="line"/>
      <point x="147" y="1603"/>
      <point x="35" y="1336"/>
      <point x="35" y="1002" type="curve" smooth="yes"/>
      <point x="35" y="678" type="line" smooth="yes"/>
      <point x="35" y="351"/>
      <point x="146" y="79"/>
      <point x="513" y="67" type="curve"/>
      <point x="513" y="313" type="line"/>
      <point x="377" y="328"/>
      <point x="351" y="474"/>
      <point x="351" y="601" type="curve" smooth="yes"/>
      <point x="351" y="1080" type="line" smooth="yes"/>
      <point x="351" y="1207"/>
      <point x="377" y="1353"/>
      <point x="513" y="1368" type="curve"/>
    </contour>
    <contour>
      <point x="484" y="1663" type="line"/>
      <point x="594" y="1663" type="line"/>
      <point x="594" y="1861" type="line"/>
      <point x="484" y="1861" type="line"/>
    </contour>
    <contour>
      <point x="484" y="-188" type="line"/>
      <point x="594" y="-188" type="line"/>
      <point x="594" y="10" type="line"/>
      <point x="484" y="10" type="line"/>
    </contour>
  </outline>
</glyph>
<glyph name="sterling" format="1">
  <advance width="1070"/>
  <unicode hex="00A3"/>
  <outline>
    <contour>
      <point x="519" y="0" type="line"/>
      <point x="519" y="1195" type="line" smooth="yes"/>
      <point x="519" y="1363"/>
      <point x="517" y="1548"/>
      <point x="592" y="1566" type="curve"/>
      <point x="592" y="1814" type="line"/>
      <point x="234" y="1806"/>
      <point x="200" y="1466"/>
      <point x="200" y="1206" type="curve" smooth="yes"/>
      <point x="200" y="960" type="line"/>
      <point x="78" y="960" type="line"/>
      <point x="78" y="735" type="line"/>
      <point x="200" y="735" type="line"/>
      <point x="200" y="216" type="line"/>
      <point x="78" y="159" type="line"/>
      <point x="78" y="0" type="line"/>
    </contour>
    <contour>
      <point x="642" y="1559" type="line"/>
      <point x="700" y="1524"/>
      <point x="701" y="1390"/>
      <point x="701" y="1313" type="curve"/>
      <point x="982" y="1313" type="line"/>
      <point x="982" y="1527"/>
      <point x="960" y="1797"/>
      <point x="642" y="1813" type="curve"/>
    </contour>
    <contour>
      <point x="569" y="0" type="line"/>
      <point x="974" y="0" type="line"/>
      <point x="974" y="246" type="line"/>
      <point x="569" y="246" type="line"/>
    </contour>
    <contour>
      <point x="569" y="735" type="line"/>
      <point x="772" y="735" type="line"/>
      <point x="772" y="961" type="line"/>
      <point x="569" y="961" type="line"/>
    </contour>
  </outline>
</glyph>
<glyph name="currency" format="1">
  <advance width="1048"/>
  <unicode hex="00A4"/>
  <outline>
    <contour>
      <point x="500" y="600" type="line"/>
      <point x="374" y="614"/>
      <point x="307" y="724"/>
      <point x="307" y="839" type="curve" smooth="yes"/>
      <point x="307" y="950"/>
      <point x="367" y="1062"/>
      <point x="500" y="1075" type="curve"/>
      <point x="500" y="1228" type="line"/>
      <point x="417" y="1224"/>
      <point x="350" y="1202"/>
      <point x="296" y="1167" type="curve"/>
      <point x="213" y="1259" type="line"/>
      <point x="131" y="1181" type="line"/>
      <point x="214" y="1088" type="line"/>
      <point x="160" y="1017"/>
      <point x="135" y="928"/>
      <point x="135" y="839" type="curve" smooth="yes"/>
      <point x="135" y="747"/>
      <point x="160" y="657"/>
      <point x="215" y="586" type="curve"/>
      <point x="131" y="492" type="line"/>
      <point x="213" y="414" type="line"/>
      <point x="297" y="508" type="line"/>
      <point x="351" y="473"/>
      <point x="417" y="452"/>
      <point x="500" y="448" type="curve"/>
    </contour>
    <contour>
      <point x="550" y="448" type="line"/>
      <point x="633" y="452"/>
      <point x="702" y="475"/>
      <point x="756" y="510" type="curve"/>
      <point x="841" y="414" type="line"/>
      <point x="923" y="492" type="line"/>
      <point x="836" y="589" type="line"/>
      <point x="889" y="660"/>
      <point x="914" y="748"/>
      <point x="914" y="839" type="curve" smooth="yes"/>
      <point x="914" y="926"/>
      <point x="890" y="1015"/>
      <point x="837" y="1085" type="curve"/>
      <point x="923" y="1181" type="line"/>
      <point x="841" y="1259" type="line"/>
      <point x="757" y="1165" type="line"/>
      <point x="702" y="1201"/>
      <point x="634" y="1224"/>
      <point x="550" y="1228" type="curve"/>
      <point x="550" y="1075" type="line"/>
      <point x="682" y="1062"/>
      <point x="742" y="949"/>
      <point x="742" y="838" type="curve" smooth="yes"/>
      <point x="742" y="726"/>
      <point x="681" y="614"/>
      <point x="550" y="600" type="curve"/>
    </contour>
  </outline>
</glyph>
<glyph name="yen" format="1">
  <advance width="1053"/>
  <unicode hex="00A5"/>
  <outline>
    <contour>
      <point x="848" y="427" type="line"/>
      <point x="632" y="427" type="line"/>
      <point x="293" y="1782" type="line"/>
      <point x="2" y="1782" type="line"/>
      <point x="305" y="724" type="line"/>
      <point x="156" y="724" type="line"/>
      <point x="156" y="552" type="line"/>
      <point x="346" y="552" type="line"/>
      <point x="346" y="427" type="line"/>
      <point x="156" y="427" type="line"/>
      <point x="156" y="252" type="line"/>
      <point x="346" y="252" type="line"/>
      <point x="346" y="0" type="line"/>
      <point x="654" y="0" type="line"/>
      <point x="654" y="252" type="line"/>
      <point x="848" y="252" type="line"/>
    </contour>
    <contour>
      <point x="654" y="552" type="line"/>
      <point x="848" y="552" type="line"/>
      <point x="848" y="724" type="line"/>
      <point x="702" y="724" type="line"/>
      <point x="1000" y="1782" type="line"/>
      <point x="654" y="1782" type="line"/>
      <point x="529" y="1052" type="line"/>
    </contour>
  </outline>
</glyph>
<glyph name="brokenbar" format="1">
  <advance width="433"/>
  <unicode hex="00A6"/>
  <outline>
    <contour>
      <point x="107" y="-15" type="line"/>
      <point x="318" y="-15" type="line"/>
      <point x="318" y="625" type="line"/>
      <point x="107" y="625" type="line"/>
    </contour>
    <contour>
      <point x="107" y="898" type="line"/>
      <point x="318" y="898" type="line"/>
      <point x="318" y="1537" type="line"/>
      <point x="107" y="1537" type="line"/>
    </contour>
  </outline>
</glyph>
<glyph name="section" format="1">
  <advance width="985"/>
  <unicode hex="00A7"/>
  <outline>
    <contour>
      <point x="513" y="1615" type="line"/>
      <point x="598" y="1596"/>
      <point x="646" y="1488"/>
      <point x="671" y="1413" type="curve"/>
      <point x="872" y="1479" type="line"/>
      <point x="828" y="1665"/>
      <point x="712" y="1818"/>
      <point x="513" y="1829" type="curve"/>
    </contour>
    <contour>
      <point x="463" y="195" type="line"/>
      <point x="377" y="215"/>
      <point x="320" y="327"/>
      <point x="293" y="403" type="curve"/>
      <point x="96" y="337" type="line"/>
      <point x="144" y="148"/>
      <point x="259" y="-7"/>
      <point x="463" y="-19" type="curve"/>
    </contour>
    <contour>
      <point x="513" y="509" type="line"/>
      <point x="573" y="458"/>
      <point x="615" y="400"/>
      <point x="615" y="321" type="curve" smooth="yes"/>
      <point x="615" y="248"/>
      <point x="582" y="200"/>
      <point x="513" y="193" type="curve"/>
      <point x="513" y="-20" type="line"/>
      <point x="716" y="-12"/>
      <point x="869" y="103"/>
      <point x="869" y="322" type="curve" smooth="yes"/>
      <point x="869" y="431"/>
      <point x="806" y="564"/>
      <point x="710" y="630" type="curve"/>
      <point x="833" y="674"/>
      <point x="877" y="755"/>
      <point x="877" y="874" type="curve" smooth="yes"/>
      <point x="877" y="1088"/>
      <point x="680" y="1216"/>
      <point x="512" y="1323" type="curve"/>
      <point x="513" y="1034" type="line"/>
      <point x="567" y="985"/>
      <point x="623" y="922"/>
      <point x="623" y="874" type="curve" smooth="yes"/>
      <point x="623" y="831"/>
      <point x="606" y="775"/>
      <point x="511" y="775" type="curve"/>
    </contour>
    <contour>
      <point x="463" y="807" type="line"/>
      <point x="404" y="847"/>
      <point x="346" y="893"/>
      <point x="346" y="961" type="curve" smooth="yes"/>
      <point x="346" y="1017"/>
      <point x="368" y="1059"/>
      <point x="463" y="1059" type="curve"/>
      <point x="463" y="1354" type="line"/>
      <point x="446" y="1365" type="line" smooth="yes"/>
      <point x="401" y="1397"/>
      <point x="364" y="1441"/>
      <point x="364" y="1492" type="curve" smooth="yes"/>
      <point x="364" y="1561"/>
      <point x="400" y="1608"/>
      <point x="463" y="1617" type="curve"/>
      <point x="463" y="1829" type="line"/>
      <point x="260" y="1820"/>
      <point x="107" y="1708"/>
      <point x="107" y="1489" type="curve" smooth="yes"/>
      <point x="107" y="1380"/>
      <point x="209" y="1286"/>
      <point x="295" y="1227" type="curve"/>
      <point x="167" y="1179"/>
      <point x="99" y="1079"/>
      <point x="99" y="948" type="curve" smooth="yes"/>
      <point x="99" y="725"/>
      <point x="311" y="639"/>
      <point x="463" y="537" type="curve"/>
    </contour>
  </outline>
</glyph>
<glyph name="dieresis" format="1">
  <advance width="898"/>
  <unicode hex="00A8"/>
  <outline>
    <contour>
      <point x="115" y="1468" type="line"/>
      <point x="392" y="1468" type="line"/>
      <point x="392" y="1748" type="line"/>
      <point x="115" y="1748" type="line"/>
    </contour>
    <contour>
      <point x="553" y="1468" type="line"/>
      <point x="830" y="1468" type="line"/>
      <point x="830" y="1748" type="line"/>
      <point x="553" y="1748" type="line"/>
    </contour>
    <contour>
      <point x="475" y="1281" type="move" name="_top"/>
    </contour>
  </outline>
</glyph>
<glyph name="copyright" format="1">
  <advance width="1565"/>
  <unicode hex="00A9"/>
  <outline>
    <contour>
      <point x="806" y="1044" type="line"/>
      <point x="877" y="1027"/>
      <point x="879" y="909"/>
      <point x="880" y="846" type="curve"/>
      <point x="1065" y="846" type="line"/>
      <point x="1065" y="996"/>
      <point x="1020" y="1188"/>
      <point x="806" y="1198" type="curve"/>
    </contour>
    <contour>
      <point x="806" y="221" type="line"/>
      <point x="1004" y="236"/>
      <point x="1064" y="423"/>
      <point x="1064" y="590" type="curve"/>
      <point x="881" y="590" type="line"/>
      <point x="881" y="521"/>
      <point x="879" y="402"/>
      <point x="806" y="379" type="curve"/>
    </contour>
    <contour>
      <point x="756" y="377" type="line"/>
      <point x="687" y="388"/>
      <point x="658" y="455"/>
      <point x="658" y="716" type="curve" smooth="yes"/>
      <point x="658" y="942"/>
      <point x="683" y="1027"/>
      <point x="756" y="1043" type="curve"/>
      <point x="756" y="1197" type="line"/>
      <point x="489" y="1180"/>
      <point x="485" y="933"/>
      <point x="485" y="705" type="curve" smooth="yes"/>
      <point x="485" y="484"/>
      <point x="490" y="235"/>
      <point x="756" y="221" type="curve"/>
    </contour>
    <contour>
      <point x="756" y="142" type="line"/>
      <point x="453" y="154"/>
      <point x="255" y="421"/>
      <point x="255" y="705" type="curve" smooth="yes"/>
      <point x="255" y="990"/>
      <point x="453" y="1258"/>
      <point x="756" y="1269" type="curve"/>
      <point x="756" y="1429" type="line"/>
      <point x="360" y="1418"/>
      <point x="79" y="1085"/>
      <point x="79" y="708" type="curve" smooth="yes"/>
      <point x="79" y="331"/>
      <point x="359" y="-1"/>
      <point x="756" y="-12" type="curve"/>
    </contour>
    <contour>
      <point x="806" y="-11" type="line"/>
      <point x="1197" y="5"/>
      <point x="1474" y="335"/>
      <point x="1474" y="708" type="curve" smooth="yes"/>
      <point x="1474" y="1081"/>
      <point x="1198" y="1411"/>
      <point x="806" y="1428" type="curve"/>
      <point x="806" y="1268" type="line"/>
      <point x="1102" y="1250"/>
      <point x="1296" y="985"/>
      <point x="1296" y="705" type="curve" smooth="yes"/>
      <point x="1296" y="425"/>
      <point x="1102" y="160"/>
      <point x="806" y="143" type="curve"/>
    </contour>
  </outline>
</glyph>
<glyph name="guillemotleft" format="1">
  <advance width="1014"/>
  <unicode hex="00AB"/>
  <outline>
    <contour>
      <point x="513" y="77" type="line"/>
      <point x="513" y="371" type="line"/>
      <point x="253" y="641" type="line"/>
      <point x="513" y="909" type="line"/>
      <point x="513" y="1203" type="line"/>
      <point x="79" y="704" type="line"/>
      <point x="79" y="576" type="line"/>
    </contour>
    <contour>
      <point x="931" y="77" type="line"/>
      <point x="931" y="371" type="line"/>
      <point x="671" y="641" type="line"/>
      <point x="931" y="909" type="line"/>
      <point x="931" y="1203" type="line"/>
      <point x="496" y="704" type="line"/>
      <point x="496" y="576" type="line"/>
    </contour>
  </outline>
</glyph>
<glyph name="registered" format="1">
  <advance width="1565"/>
  <unicode hex="00AE"/>
  <outline>
    <contour>
      <point x="803" y="-12" type="line"/>
      <point x="1196" y="2"/>
      <point x="1474" y="334"/>
      <point x="1474" y="708" type="curve" smooth="yes"/>
      <point x="1474" y="1082"/>
      <point x="1196" y="1413"/>
      <point x="803" y="1428" type="curve"/>
      <point x="803" y="1268" type="line"/>
      <point x="1101" y="1252"/>
      <point x="1296" y="986"/>
      <point x="1296" y="705" type="curve" smooth="yes"/>
      <point x="1296" y="423"/>
      <point x="1103" y="157"/>
      <point x="803" y="143" type="curve"/>
    </contour>
    <contour>
      <point x="753" y="143" type="line"/>
      <point x="453" y="157"/>
      <point x="255" y="423"/>
      <point x="255" y="705" type="curve" smooth="yes"/>
      <point x="255" y="989"/>
      <point x="451" y="1257"/>
      <point x="753" y="1269" type="curve"/>
      <point x="753" y="1429" type="line"/>
      <point x="358" y="1417"/>
      <point x="79" y="1084"/>
      <point x="79" y="708" type="curve" smooth="yes"/>
      <point x="79" y="333"/>
      <point x="359" y="1"/>
      <point x="753" y="-12" type="curve"/>
    </contour>
    <contour>
      <point x="738" y="664" type="line"/>
      <point x="765" y="664" type="line"/>
      <point x="885" y="281" type="line"/>
      <point x="1060" y="281" type="line"/>
      <point x="914" y="698" type="line"/>
      <point x="997" y="738"/>
      <point x="1045" y="811"/>
      <point x="1045" y="903" type="curve" smooth="yes"/>
      <point x="1045" y="1066"/>
      <point x="964" y="1164"/>
      <point x="770" y="1164" type="curve" smooth="yes"/>
      <point x="738" y="1164" type="line"/>
      <point x="738" y="1037" type="line"/>
      <point x="756" y="1037" type="line" smooth="yes"/>
      <point x="850" y="1037"/>
      <point x="880" y="983"/>
      <point x="880" y="906" type="curve" smooth="yes"/>
      <point x="880" y="802"/>
      <point x="839" y="775"/>
      <point x="738" y="772" type="curve"/>
    </contour>
    <contour>
      <point x="688" y="281" type="line"/>
      <point x="688" y="1164" type="line"/>
      <point x="527" y="1164" type="line"/>
      <point x="527" y="281" type="line"/>
    </contour>
  </outline>
</glyph>
<glyph name="degree" format="1">
  <advance width="993"/>
  <unicode hex="00B0"/>
  <outline>
    <contour>
      <point x="464" y="1279" type="line"/>
      <point x="366" y="1291"/>
      <point x="319" y="1377"/>
      <point x="319" y="1469" type="curve" smooth="yes"/>
      <point x="319" y="1562"/>
      <point x="364" y="1646"/>
      <point x="464" y="1657" type="curve"/>
      <point x="464" y="1829" type="line"/>
      <point x="254" y="1819"/>
      <point x="129" y="1676"/>
      <point x="129" y="1469" type="curve" smooth="yes"/>
      <point x="129" y="1263"/>
      <point x="253" y="1118"/>
      <point x="464" y="1108" type="curve"/>
    </contour>
    <contour>
      <point x="514" y="1108" type="line"/>
      <point x="727" y="1118"/>
      <point x="853" y="1262"/>
      <point x="853" y="1469" type="curve" smooth="yes"/>
      <point x="853" y="1677"/>
      <point x="727" y="1821"/>
      <point x="514" y="1830" type="curve"/>
      <point x="514" y="1657" type="line"/>
      <point x="614" y="1645"/>
      <point x="662" y="1561"/>
      <point x="662" y="1468" type="curve" smooth="yes"/>
      <point x="662" y="1376"/>
      <point x="614" y="1291"/>
      <point x="514" y="1279" type="curve"/>
    </contour>
  </outline>
</glyph>
<glyph name="plusminus" format="1">
  <advance width="852"/>
  <unicode hex="00B1"/>
  <outline>
    <contour>
      <point x="130" y="0" type="line"/>
      <point x="716" y="0" type="line"/>
      <point x="716" y="199" type="line"/>
      <point x="130" y="199" type="line"/>
    </contour>
    <contour>
      <point x="323" y="388" type="line"/>
      <point x="524" y="388" type="line"/>
      <point x="524" y="581" type="line"/>
      <point x="716" y="581" type="line"/>
      <point x="716" y="780" type="line"/>
      <point x="524" y="780" type="line"/>
      <point x="524" y="974" type="line"/>
      <point x="323" y="974" type="line"/>
      <point x="323" y="780" type="line"/>
      <point x="130" y="780" type="line"/>
      <point x="130" y="581" type="line"/>
      <point x="323" y="581" type="line"/>
    </contour>
  </outline>
</glyph>
<glyph name="twosuperior" format="1">
  <advance width="711"/>
  <unicode hex="00B2"/>
  <outline>
    <contour>
      <point x="330" y="1567" type="line"/>
      <point x="163" y="1556"/>
      <point x="77" y="1439"/>
      <point x="77" y="1262" type="curve"/>
      <point x="282" y="1262" type="line"/>
      <point x="282" y="1314"/>
      <point x="282" y="1395"/>
      <point x="330" y="1416" type="curve"/>
    </contour>
    <contour>
      <point x="253" y="584" type="line"/>
      <point x="624" y="584" type="line"/>
      <point x="624" y="732" type="line"/>
      <point x="362" y="732" type="line"/>
    </contour>
    <contour>
      <point x="190" y="584" type="line"/>
      <point x="483" y="981" type="line"/>
      <point x="555" y="1079"/>
      <point x="627" y="1198"/>
      <point x="627" y="1285" type="curve" smooth="yes"/>
      <point x="627" y="1452"/>
      <point x="539" y="1558"/>
      <point x="380" y="1567" type="curve"/>
      <point x="380" y="1416" type="line"/>
      <point x="420" y="1398"/>
      <point x="423" y="1333"/>
      <point x="423" y="1285" type="curve" smooth="yes"/>
      <point x="423" y="1162"/>
      <point x="169" y="839"/>
      <point x="77" y="721" type="curve"/>
      <point x="77" y="584" type="line"/>
    </contour>
  </outline>
</glyph>
<glyph name="threesuperior" format="1">
  <advance width="816"/>
  <unicode hex="00B3"/>
  <outline>
    <contour>
      <point x="381" y="1618" type="line"/>
      <point x="214" y="1607"/>
      <point x="129" y="1489"/>
      <point x="129" y="1313" type="curve"/>
      <point x="330" y="1313" type="line"/>
      <point x="330" y="1366"/>
      <point x="330" y="1450"/>
      <point x="382" y="1469" type="curve"/>
    </contour>
    <contour>
      <point x="381" y="784" type="line"/>
      <point x="330" y="802"/>
      <point x="330" y="886"/>
      <point x="330" y="939" type="curve"/>
      <point x="129" y="939" type="line"/>
      <point x="129" y="763"/>
      <point x="214" y="645"/>
      <point x="381" y="635" type="curve"/>
    </contour>
    <contour>
      <point x="432" y="635" type="line"/>
      <point x="589" y="647"/>
      <point x="677" y="755"/>
      <point x="677" y="919" type="curve" smooth="yes"/>
      <point x="677" y="1014"/>
      <point x="626" y="1092"/>
      <point x="539" y="1131" type="curve"/>
      <point x="627" y="1168"/>
      <point x="677" y="1242"/>
      <point x="677" y="1338" type="curve" smooth="yes"/>
      <point x="677" y="1499"/>
      <point x="589" y="1607"/>
      <point x="432" y="1618" type="curve"/>
      <point x="432" y="1467" type="line"/>
      <point x="471" y="1447"/>
      <point x="475" y="1383"/>
      <point x="475" y="1336" type="curve" smooth="yes"/>
      <point x="475" y="1246"/>
      <point x="437" y="1210"/>
      <point x="338" y="1203" type="curve"/>
      <point x="338" y="1061" type="line"/>
      <point x="433" y="1057"/>
      <point x="475" y="1010"/>
      <point x="475" y="919" type="curve" smooth="yes"/>
      <point x="475" y="868"/>
      <point x="472" y="806"/>
      <point x="432" y="787" type="curve"/>
    </contour>
  </outline>
</glyph>
<glyph name="acute" format="1">
  <advance width="595"/>
  <unicode hex="00B4"/>
  <outline>
    <contour>
      <point x="212" y="1280" type="move" name="_top"/>
    </contour>
    <contour>
      <point x="109" y="1378" type="line"/>
      <point x="320" y="1378" type="line"/>
      <point x="686" y="1740" type="line"/>
      <point x="382" y="1740" type="line"/>
    </contour>
  </outline>
</glyph>
<glyph name="periodcentered" format="1">
  <advance width="503"/>
  <unicode hex="00B7"/>
  <outline>
    <contour>
      <point x="106" y="685" type="line"/>
      <point x="398" y="685" type="line"/>
      <point x="398" y="969" type="line"/>
      <point x="106" y="969" type="line"/>
    </contour>
  </outline>
</glyph>
<glyph name="cedilla" format="1">
  <advance width="555"/>
  <unicode hex="00B8"/>
  <outline>
    <contour>
      <point x="258" y="0" type="move" name="_bot"/>
    </contour>
    <contour>
      <point x="127" y="-524" type="line"/>
      <point x="269" y="-524"/>
      <point x="531" y="-512"/>
      <point x="531" y="-343" type="curve" smooth="yes"/>
      <point x="531" y="-244"/>
      <point x="419" y="-171"/>
      <point x="328" y="-126" type="curve"/>
      <point x="181" y="-125" type="line"/>
      <point x="181" y="-218" type="line"/>
      <point x="227" y="-239"/>
      <point x="332" y="-281"/>
      <point x="332" y="-338" type="curve" smooth="yes"/>
      <point x="332" y="-389"/>
      <point x="172" y="-385"/>
      <point x="127" y="-385" type="curve"/>
    </contour>
  </outline>
</glyph>
<glyph name="onesuperior" format="1">
  <advance width="553"/>
  <unicode hex="00B9"/>
  <outline>
    <contour>
      <point x="208" y="635" type="line"/>
      <point x="412" y="635" type="line"/>
      <point x="412" y="1614" type="line"/>
      <point x="325" y="1614" type="line"/>
      <point x="292" y="1570"/>
      <point x="252" y="1533"/>
      <point x="208" y="1501" type="curve"/>
    </contour>
    <contour>
      <point x="158" y="1472" type="line"/>
      <point x="115" y="1442"/>
      <point x="71" y="1418"/>
      <point x="28" y="1397" type="curve"/>
      <point x="28" y="1251" type="line"/>
      <point x="36" y="1253"/>
      <point x="123" y="1259"/>
      <point x="158" y="1266" type="curve"/>
    </contour>
  </outline>
</glyph>
<glyph name="guillemotright" format="1">
  <advance width="1013"/>
  <unicode hex="00BB"/>
  <outline>
    <contour>
      <point x="86" y="77" type="line"/>
      <point x="521" y="576" type="line"/>
      <point x="521" y="704" type="line"/>
      <point x="86" y="1203" type="line"/>
      <point x="86" y="909" type="line"/>
      <point x="347" y="641" type="line"/>
      <point x="86" y="371" type="line"/>
    </contour>
    <contour>
      <point x="504" y="77" type="line"/>
      <point x="938" y="576" type="line"/>
      <point x="938" y="704" type="line"/>
      <point x="504" y="1203" type="line"/>
      <point x="504" y="909" type="line"/>
      <point x="764" y="641" type="line"/>
      <point x="504" y="371" type="line"/>
    </contour>
  </outline>
</glyph>
<glyph name="onequarter" format="1">
  <advance width="1651"/>
  <unicode hex="00BC"/>
  <outline>
    <contour>
      <point x="407" y="0" type="line"/>
      <point x="578" y="0" type="line"/>
      <point x="1151" y="1810" type="line"/>
      <point x="978" y="1810" type="line"/>
    </contour>
    <component base="onesuperior" xOffset="5" yOffset="1"/>
    <component base="foursuperior" xOffset="861" yOffset="-583"/>
  </outline>
</glyph>
<glyph name="onehalf" format="1">
  <advance width="1699"/>
  <unicode hex="00BD"/>
  <outline>
    <contour>
      <point x="434" y="0" type="line"/>
      <point x="605" y="0" type="line"/>
      <point x="1177" y="1810" type="line"/>
      <point x="1005" y="1810" type="line"/>
    </contour>
    <component base="onesuperior" xOffset="5" yOffset="1"/>
    <component base="twosuperior" xOffset="1003" yOffset="-585"/>
  </outline>
</glyph>
<glyph name="threequarters" format="1">
  <advance width="1894"/>
  <unicode hex="00BE"/>
  <outline>
    <contour>
      <point x="600" y="0" type="line"/>
      <point x="771" y="0" type="line"/>
      <point x="1344" y="1810" type="line"/>
      <point x="1171" y="1810" type="line"/>
    </contour>
    <component base="foursuperior" xOffset="1051" yOffset="-583"/>
    <component base="threesuperior"/>
  </outline>
</glyph>
<glyph name="AE" format="1">
  <advance width="1516"/>
  <unicode hex="00C6"/>
  <outline>
    <contour>
      <point x="960" y="1782" type="line"/>
      <point x="702" y="1782" type="line"/>
      <point x="25" y="0" type="line"/>
      <point x="331" y="0" type="line"/>
    </contour>
    <contour>
      <point x="1078" y="0" type="line"/>
      <point x="1078" y="1782" type="line"/>
      <point x="1014" y="1782" type="line"/>
      <point x="782" y="1126" type="line"/>
      <point x="782" y="594" type="line"/>
      <point x="595" y="594" type="line"/>
      <point x="526" y="399" type="line"/>
      <point x="782" y="399" type="line"/>
      <point x="782" y="0" type="line"/>
    </contour>
    <contour>
      <point x="1128" y="1561" type="line"/>
      <point x="1478" y="1561" type="line"/>
      <point x="1478" y="1782" type="line"/>
      <point x="1128" y="1782" type="line"/>
    </contour>
    <contour>
      <point x="1128" y="0" type="line"/>
      <point x="1478" y="0" type="line"/>
      <point x="1478" y="221" type="line"/>
      <point x="1128" y="221" type="line"/>
    </contour>
    <contour>
      <point x="1128" y="810" type="line"/>
      <point x="1362" y="810" type="line"/>
      <point x="1362" y="1035" type="line"/>
      <point x="1128" y="1035" type="line"/>
    </contour>
  </outline>
</glyph>
<glyph name="Eth" format="1">
  <advance width="1150"/>
  <unicode hex="00D0"/>
  <outline>
    <contour>
      <point x="433" y="0" type="line"/>
      <point x="433" y="809" type="line"/>
      <point x="574" y="809" type="line"/>
      <point x="574" y="1008" type="line"/>
      <point x="433" y="1008" type="line"/>
      <point x="433" y="1782" type="line"/>
      <point x="116" y="1782" type="line"/>
      <point x="116" y="1008" type="line"/>
      <point x="21" y="1008" type="line"/>
      <point x="21" y="809" type="line"/>
      <point x="116" y="809" type="line"/>
      <point x="116" y="0" type="line"/>
    </contour>
    <contour>
      <point x="483" y="0" type="line"/>
      <point x="492" y="0" type="line" smooth="yes"/>
      <point x="970" y="0"/>
      <point x="1056" y="212"/>
      <point x="1056" y="600" type="curve" smooth="yes"/>
      <point x="1056" y="1215" type="line" smooth="yes"/>
      <point x="1056" y="1596"/>
      <point x="944" y="1782"/>
      <point x="495" y="1782" type="curve" smooth="yes"/>
      <point x="483" y="1782" type="line"/>
      <point x="483" y="1556" type="line"/>
      <point x="494" y="1556" type="line" smooth="yes"/>
      <point x="665" y="1556"/>
      <point x="740" y="1503"/>
      <point x="740" y="1362" type="curve" smooth="yes"/>
      <point x="740" y="437" type="line" smooth="yes"/>
      <point x="740" y="272"/>
      <point x="687" y="225"/>
      <point x="497" y="225" type="curve" smooth="yes"/>
      <point x="483" y="225" type="line"/>
    </contour>
  </outline>
</glyph>
<glyph name="multiply" format="1">
  <advance width="794"/>
  <unicode hex="00D7"/>
  <outline>
    <contour>
      <point x="62" y="455" type="line"/>
      <point x="195" y="322" type="line"/>
      <point x="389" y="516" type="line"/>
      <point x="583" y="322" type="line"/>
      <point x="716" y="455" type="line"/>
      <point x="660" y="509"/>
      <point x="572" y="598"/>
      <point x="522" y="649" type="curve"/>
      <point x="716" y="842" type="line"/>
      <point x="583" y="976" type="line"/>
      <point x="389" y="782" type="line"/>
      <point x="195" y="976" type="line"/>
      <point x="62" y="842" type="line"/>
      <point x="255" y="649" type="line"/>
    </contour>
  </outline>
</glyph>
<glyph name="germandbls" format="1">
  <advance width="1162"/>
  <unicode hex="00DF"/>
  <outline>
    <contour>
      <point x="506" y="1035" type="line"/>
      <point x="506" y="826" type="line"/>
      <point x="684" y="794"/>
      <point x="807" y="621"/>
      <point x="807" y="437" type="curve" smooth="yes"/>
      <point x="807" y="303"/>
      <point x="753" y="187"/>
      <point x="609" y="187" type="curve" smooth="yes"/>
      <point x="526" y="187" type="line"/>
      <point x="526" y="-33" type="line"/>
      <point x="635" y="-34" type="line"/>
      <point x="976" y="-34"/>
      <point x="1097" y="174"/>
      <point x="1097" y="412" type="curve" smooth="yes"/>
      <point x="1097" y="662"/>
      <point x="955" y="909"/>
      <point x="740" y="970" type="curve"/>
    </contour>
    <contour>
      <point x="770" y="1015" type="line"/>
      <point x="938" y="1104"/>
      <point x="1018" y="1261"/>
      <point x="1018" y="1411" type="curve" smooth="yes"/>
      <point x="1018" y="1618"/>
      <point x="867" y="1813"/>
      <point x="585" y="1813" type="curve"/>
      <point x="586" y="1595" type="line"/>
      <point x="693" y="1588"/>
      <point x="737" y="1511"/>
      <point x="737" y="1418" type="curve" smooth="yes"/>
      <point x="737" y="1291"/>
      <point x="654" y="1132"/>
      <point x="535" y="1078" type="curve"/>
    </contour>
    <contour>
      <point x="536" y="1814" type="line"/>
      <point x="254" y="1808"/>
      <point x="107" y="1608"/>
      <point x="107" y="1354" type="curve" smooth="yes"/>
      <point x="107" y="0" type="line"/>
      <point x="426" y="0" type="line"/>
      <point x="426" y="1357" type="line" smooth="yes"/>
      <point x="426" y="1470"/>
      <point x="447" y="1578"/>
      <point x="536" y="1595" type="curve"/>
    </contour>
  </outline>
</glyph>
<glyph name="divide" format="1">
  <advance width="691"/>
  <unicode hex="00F7"/>
  <outline>
    <contour>
      <point x="12" y="581" type="line"/>
      <point x="664" y="581" type="line"/>
      <point x="664" y="780" type="line"/>
      <point x="12" y="780" type="line"/>
    </contour>
    <contour>
      <point x="206" y="888" type="line"/>
      <point x="470" y="888" type="line"/>
      <point x="470" y="1150" type="line"/>
      <point x="206" y="1150" type="line"/>
    </contour>
    <contour>
      <point x="206" y="235" type="line"/>
      <point x="470" y="235" type="line"/>
      <point x="470" y="498" type="line"/>
      <point x="206" y="498" type="line"/>
    </contour>
  </outline>
</glyph>
<glyph name="oslash" format="1">
  <advance width="1198"/>
  <unicode hex="00F8"/>
  <outline>
    <contour>
      <point x="476" y="252" type="line"/>
      <point x="421" y="307"/>
      <point x="408" y="403"/>
      <point x="408" y="493" type="curve" smooth="yes"/>
      <point x="408" y="1280" type="line" smooth="yes"/>
      <point x="408" y="1414"/>
      <point x="441" y="1569"/>
      <point x="598" y="1569" type="curve" smooth="yes"/>
      <point x="639" y="1569"/>
      <point x="670" y="1559"/>
      <point x="696" y="1541" type="curve"/>
      <point x="767" y="1793" type="line"/>
      <point x="718" y="1807"/>
      <point x="661" y="1815"/>
      <point x="598" y="1815" type="curve" smooth="yes"/>
      <point x="212" y="1815"/>
      <point x="92" y="1544"/>
      <point x="92" y="1202" type="curve" smooth="yes"/>
      <point x="92" y="571" type="line" smooth="yes"/>
      <point x="92" y="338"/>
      <point x="151" y="136"/>
      <point x="319" y="36" type="curve"/>
      <point x="245" y="-224" type="line"/>
      <point x="334" y="-244" type="line"/>
    </contour>
    <contour>
      <point x="451" y="-17" type="line"/>
      <point x="494" y="-27"/>
      <point x="544" y="-33"/>
      <point x="598" y="-33" type="curve" smooth="yes"/>
      <point x="985" y="-33"/>
      <point x="1106" y="244"/>
      <point x="1106" y="578" type="curve" smooth="yes"/>
      <point x="1106" y="1202" type="line" smooth="yes"/>
      <point x="1106" y="1432"/>
      <point x="1050" y="1629"/>
      <point x="897" y="1734" type="curve"/>
      <point x="973" y="2003" type="line"/>
      <point x="884" y="2023" type="line"/>
      <point x="737" y="1500" type="line"/>
      <point x="777" y="1442"/>
      <point x="788" y="1358"/>
      <point x="788" y="1280" type="curve" smooth="yes"/>
      <point x="789" y="493" type="line" smooth="yes"/>
      <point x="789" y="357"/>
      <point x="758" y="205"/>
      <point x="599" y="205" type="curve" smooth="yes"/>
      <point x="567" y="205"/>
      <point x="541" y="211"/>
      <point x="519" y="222" type="curve"/>
    </contour>
  </outline>
</glyph>
<glyph name="Hbar" format="1">
  <advance width="1170"/>
  <unicode hex="0126"/>
  <outline>
    <contour>
      <point x="473" y="1334" type="line"/>
      <point x="744" y="1334" type="line"/>
      <point x="744" y="1035" type="line"/>
      <point x="473" y="1035" type="line"/>
      <point x="473" y="810" type="line"/>
      <point x="744" y="810" type="line"/>
      <point x="744" y="0" type="line"/>
      <point x="1063" y="0" type="line"/>
      <point x="1063" y="1782" type="line"/>
      <point x="744" y="1782" type="line"/>
      <point x="744" y="1444" type="line"/>
      <point x="473" y="1444" type="line"/>
    </contour>
    <contour>
      <point x="423" y="0" type="line"/>
      <point x="423" y="1782" type="line"/>
      <point x="107" y="1782" type="line"/>
      <point x="107" y="0" type="line"/>
    </contour>
  </outline>
</glyph>
<glyph name="kgreenlandic" format="1">
  <advance width="1147"/>
  <unicode hex="0138"/>
  <outline>
    <contour>
      <point x="482" y="857" type="line"/>
      <point x="815" y="0" type="line"/>
      <point x="1144" y="0" type="line"/>
      <point x="741" y="981" type="line"/>
      <point x="1105" y="1782" type="line"/>
      <point x="754" y="1782" type="line"/>
      <point x="482" y="1094" type="line"/>
    </contour>
    <contour>
      <point x="432" y="0" type="line"/>
      <point x="432" y="1782" type="line"/>
      <point x="116" y="1782" type="line"/>
      <point x="116" y="0" type="line"/>
    </contour>
  </outline>
</glyph>
<glyph name="oe" format="1">
  <advance width="1543"/>
  <unicode hex="0153"/>
  <outline>
    <contour>
      <point x="738" y="224" type="line"/>
      <point x="598" y="224" type="line" smooth="yes"/>
      <point x="440" y="224"/>
      <point x="408" y="376"/>
      <point x="408" y="506" type="curve" smooth="yes"/>
      <point x="408" y="1267" type="line" smooth="yes"/>
      <point x="408" y="1398"/>
      <point x="440" y="1551"/>
      <point x="598" y="1551" type="curve" smooth="yes"/>
      <point x="738" y="1551" type="line"/>
      <point x="738" y="1782" type="line"/>
      <point x="598" y="1782" type="line" smooth="yes"/>
      <point x="211" y="1782"/>
      <point x="91" y="1514"/>
      <point x="91" y="1189" type="curve" smooth="yes"/>
      <point x="91" y="584" type="line" smooth="yes"/>
      <point x="91" y="249"/>
      <point x="213" y="0"/>
      <point x="598" y="0" type="curve" smooth="yes"/>
      <point x="738" y="0" type="line"/>
    </contour>
    <contour>
      <point x="1105" y="0" type="line"/>
      <point x="1105" y="810" type="line"/>
      <point x="1389" y="810" type="line"/>
      <point x="1389" y="1035" type="line"/>
      <point x="1105" y="1035" type="line"/>
      <point x="1105" y="1782" type="line"/>
      <point x="788" y="1782" type="line"/>
      <point x="788" y="0" type="line"/>
    </contour>
    <contour>
      <point x="1155" y="1561" type="line"/>
      <point x="1505" y="1561" type="line"/>
      <point x="1505" y="1782" type="line"/>
      <point x="1155" y="1782" type="line"/>
    </contour>
    <contour>
      <point x="1155" y="0" type="line"/>
      <point x="1505" y="0" type="line"/>
      <point x="1505" y="221" type="line"/>
      <point x="1155" y="221" type="line"/>
    </contour>
  </outline>
</glyph>
<glyph name="florin" format="1">
  <advance width="571"/>
  <unicode hex="0192"/>
  <outline>
    <contour>
      <point x="-14" y="-381" type="line"/>
      <point x="23" y="-390"/>
      <point x="67" y="-394"/>
      <point x="108" y="-394" type="curve" smooth="yes"/>
      <point x="313" y="-394"/>
      <point x="325" y="-219"/>
      <point x="325" y="-110" type="curve" smooth="yes"/>
      <point x="325" y="1114" type="line"/>
      <point x="517" y="1114" type="line"/>
      <point x="517" y="1198" type="line"/>
      <point x="325" y="1198" type="line"/>
      <point x="325" y="1378" type="line" smooth="yes"/>
      <point x="325" y="1449"/>
      <point x="320" y="1536"/>
      <point x="440" y="1536" type="curve" smooth="yes"/>
      <point x="453" y="1536"/>
      <point x="502" y="1533"/>
      <point x="514" y="1530" type="curve"/>
      <point x="514" y="1639" type="line"/>
      <point x="477" y="1648"/>
      <point x="433" y="1652"/>
      <point x="392" y="1652" type="curve" smooth="yes"/>
      <point x="187" y="1652"/>
      <point x="175" y="1476"/>
      <point x="175" y="1367" type="curve" smooth="yes"/>
      <point x="175" y="1198" type="line"/>
      <point x="8" y="1198" type="line"/>
      <point x="8" y="1114" type="line"/>
      <point x="175" y="1114" type="line"/>
      <point x="175" y="-120" type="line" smooth="yes"/>
      <point x="175" y="-191"/>
      <point x="180" y="-278"/>
      <point x="60" y="-278" type="curve" smooth="yes"/>
      <point x="47" y="-278"/>
      <point x="-2" y="-275"/>
      <point x="-14" y="-272" type="curve"/>
    </contour>
  </outline>
</glyph>
<glyph name="circumflex" format="1">
  <advance width="805"/>
  <unicode hex="02C6"/>
  <outline>
    <contour>
      <point x="406" y="1291" type="move" name="_top"/>
    </contour>
    <contour>
      <point x="819" y="1370" type="line"/>
      <point x="804" y="1391"/>
      <point x="558" y="1782"/>
      <point x="558" y="1782" type="curve"/>
      <point x="427" y="1782" type="line"/>
      <point x="427" y="1578" type="line"/>
      <point x="554" y="1370" type="line"/>
    </contour>
    <contour>
      <point x="250" y="1370" type="line"/>
      <point x="377" y="1578" type="line"/>
      <point x="377" y="1782" type="line"/>
      <point x="246" y="1782" type="line"/>
      <point x="246" y="1782"/>
      <point x="0" y="1391"/>
      <point x="-15" y="1370" type="curve"/>
    </contour>
  </outline>
</glyph>
<glyph name="caron" format="1">
  <advance width="805"/>
  <unicode hex="02C7"/>
  <outline>
    <contour>
      <point x="406" y="1291" type="move" name="_top"/>
    </contour>
    <contour>
      <point x="-15" y="1782" type="line"/>
      <point x="0" y="1761"/>
      <point x="246" y="1370"/>
      <point x="246" y="1370" type="curve"/>
      <point x="377" y="1370" type="line"/>
      <point x="377" y="1574" type="line"/>
      <point x="250" y="1782" type="line"/>
    </contour>
    <contour>
      <point x="554" y="1782" type="line"/>
      <point x="427" y="1574" type="line"/>
      <point x="427" y="1370" type="line"/>
      <point x="558" y="1370" type="line"/>
      <point x="558" y="1370"/>
      <point x="804" y="1761"/>
      <point x="819" y="1782" type="curve"/>
    </contour>
  </outline>
</glyph>
<glyph name="breve" format="1">
  <advance width="730"/>
  <unicode hex="02D8"/>
  <outline>
    <contour>
      <point x="94" y="1663" type="line"/>
      <point x="96" y="1499"/>
      <point x="214" y="1410"/>
      <point x="352" y="1410" type="curve" smooth="yes"/>
      <point x="491" y="1410"/>
      <point x="609" y="1499"/>
      <point x="611" y="1663" type="curve"/>
      <point x="452" y="1663" type="line"/>
      <point x="448" y="1594"/>
      <point x="417" y="1528"/>
      <point x="352" y="1528" type="curve" smooth="yes"/>
      <point x="288" y="1528"/>
      <point x="257" y="1594"/>
      <point x="253" y="1663" type="curve"/>
    </contour>
    <contour>
      <point x="352" y="1282" type="move" name="_top"/>
    </contour>
  </outline>
</glyph>
<glyph name="dotaccent" format="1">
  <advance width="541"/>
  <unicode hex="02D9"/>
  <outline>
    <contour>
      <point x="139" y="1472" type="line"/>
      <point x="431" y="1472" type="line"/>
      <point x="431" y="1759" type="line"/>
      <point x="139" y="1759" type="line"/>
    </contour>
    <contour>
      <point x="316" y="1291" type="move" name="_top"/>
    </contour>
  </outline>
</glyph>
<glyph name="ring" format="1">
  <advance width="730"/>
  <unicode hex="02DA"/>
  <outline>
    <contour>
      <point x="377" y="1291" type="move" name="_top"/>
    </contour>
    <contour>
      <point x="333" y="1518" type="line"/>
      <point x="283" y="1534"/>
      <point x="265" y="1594"/>
      <point x="265" y="1639" type="curve" smooth="yes"/>
      <point x="265" y="1684"/>
      <point x="283" y="1743"/>
      <point x="333" y="1759" type="curve"/>
      <point x="333" y="1872" type="line"/>
      <point x="202" y="1861"/>
      <point x="114" y="1769"/>
      <point x="114" y="1638" type="curve" smooth="yes"/>
      <point x="114" y="1508"/>
      <point x="202" y="1416"/>
      <point x="333" y="1405" type="curve"/>
    </contour>
    <contour>
      <point x="383" y="1405" type="line"/>
      <point x="516" y="1414"/>
      <point x="605" y="1506"/>
      <point x="605" y="1638" type="curve" smooth="yes"/>
      <point x="605" y="1769"/>
      <point x="515" y="1862"/>
      <point x="383" y="1872" type="curve"/>
      <point x="383" y="1760" type="line"/>
      <point x="434" y="1745"/>
      <point x="452" y="1682"/>
      <point x="452" y="1638" type="curve" smooth="yes"/>
      <point x="452" y="1592"/>
      <point x="435" y="1531"/>
      <point x="383" y="1517" type="curve"/>
    </contour>
  </outline>
</glyph>
<glyph name="ogonek" format="1">
  <advance width="553"/>
  <unicode hex="02DB"/>
  <outline>
    <contour>
      <point x="280" y="6" type="move" name="_bot"/>
    </contour>
    <contour>
      <point x="234" y="-95" type="line"/>
      <point x="179" y="-161"/>
      <point x="128" y="-252"/>
      <point x="128" y="-337" type="curve" smooth="yes"/>
      <point x="128" y="-519"/>
      <point x="303" y="-542"/>
      <point x="462" y="-542" type="curve" smooth="yes"/>
      <point x="475" y="-542"/>
      <point x="488" y="-541"/>
      <point x="501" y="-541" type="curve"/>
      <point x="517" y="-401" type="line"/>
      <point x="429" y="-401"/>
      <point x="325" y="-402"/>
      <point x="325" y="-293" type="curve" smooth="yes"/>
      <point x="325" y="-222"/>
      <point x="355" y="-158"/>
      <point x="386" y="-95" type="curve"/>
    </contour>
  </outline>
</glyph>
<glyph name="hungarumlaut" format="1">
  <advance width="911"/>
  <unicode hex="02DD"/>
  <outline>
    <contour>
      <point x="110" y="1406" type="line"/>
      <point x="283" y="1406" type="line"/>
      <point x="496" y="1819" type="line"/>
      <point x="240" y="1819" type="line"/>
    </contour>
    <contour>
      <point x="407" y="1406" type="line"/>
      <point x="581" y="1406" type="line"/>
      <point x="794" y="1819" type="line"/>
      <point x="537" y="1819" type="line"/>
    </contour>
    <contour>
      <point x="374" y="1290" type="move" name="_top"/>
    </contour>
  </outline>
</glyph>
<glyph name="uni030F" format="1">
  <advance width="913"/>
  <unicode hex="030F"/>
  <outline>
    <contour>
      <point x="615" y="1406" type="line"/>
      <point x="787" y="1406" type="line"/>
      <point x="657" y="1819" type="line"/>
      <point x="402" y="1819" type="line"/>
    </contour>
    <contour>
      <point x="316" y="1406" type="line"/>
      <point x="490" y="1406" type="line"/>
      <point x="360" y="1819" type="line"/>
      <point x="103" y="1819" type="line"/>
    </contour>
    <contour>
      <point x="510" y="1280" type="move" name="_top"/>
    </contour>
  </outline>
</glyph>
<glyph name="uni0311" format="1">
  <advance width="730"/>
  <unicode hex="0311"/>
  <outline>
    <contour>
      <point x="351" y="1282" type="move" name="_top"/>
    </contour>
    <contour>
      <point x="252" y="1410" type="line"/>
      <point x="257" y="1479"/>
      <point x="288" y="1544"/>
      <point x="352" y="1544" type="curve" smooth="yes"/>
      <point x="416" y="1544"/>
      <point x="447" y="1479"/>
      <point x="452" y="1410" type="curve"/>
      <point x="610" y="1410" type="line"/>
      <point x="608" y="1574"/>
      <point x="491" y="1663"/>
      <point x="352" y="1663" type="curve" smooth="yes"/>
      <point x="213" y="1663"/>
      <point x="96" y="1574"/>
      <point x="94" y="1410" type="curve"/>
    </contour>
  </outline>
</glyph>
<glyph name="endash" format="1">
  <advance width="587"/>
  <unicode hex="2013"/>
  <outline>
    <contour>
      <point x="29" y="452" type="line"/>
      <point x="559" y="452" type="line"/>
      <point x="559" y="651" type="line"/>
      <point x="29" y="651" type="line"/>
    </contour>
  </outline>
</glyph>
<glyph name="emdash" format="1">
  <advance width="909"/>
  <unicode hex="2014"/>
  <outline>
    <contour>
      <point x="29" y="452" type="line"/>
      <point x="881" y="452" type="line"/>
      <point x="881" y="651" type="line"/>
      <point x="29" y="651" type="line"/>
    </contour>
  </outline>
</glyph>
<glyph name="quoteleft" format="1">
  <advance width="527"/>
  <unicode hex="2018"/>
  <outline>
    <contour>
      <point x="396" y="1288" type="line"/>
      <point x="396" y="1558" type="line"/>
      <point x="268" y="1558" type="line"/>
      <point x="270" y="1622"/>
      <point x="333" y="1664"/>
      <point x="400" y="1671" type="curve"/>
      <point x="329" y="1814" type="line"/>
      <point x="145" y="1812"/>
      <point x="121" y="1643"/>
      <point x="121" y="1465" type="curve" smooth="yes"/>
      <point x="121" y="1405"/>
      <point x="124" y="1344"/>
      <point x="124" y="1288" type="curve"/>
    </contour>
  </outline>
</glyph>
<glyph name="quoteright" format="1">
  <advance width="524"/>
  <unicode hex="2019"/>
  <outline>
    <contour>
      <point x="188" y="1282" type="line"/>
      <point x="372" y="1284"/>
      <point x="396" y="1454"/>
      <point x="396" y="1631" type="curve" smooth="yes"/>
      <point x="396" y="1692"/>
      <point x="393" y="1753"/>
      <point x="393" y="1809" type="curve"/>
      <point x="122" y="1809" type="line"/>
      <point x="122" y="1538" type="line"/>
      <point x="250" y="1538" type="line"/>
      <point x="247" y="1473"/>
      <point x="185" y="1432"/>
      <point x="117" y="1426" type="curve"/>
    </contour>
  </outline>
</glyph>
<glyph name="quotesinglbase" format="1">
  <advance width="423"/>
  <unicode hex="201A"/>
  <outline>
    <contour>
      <point x="137" y="-321" type="line"/>
      <point x="279" y="-321" type="line"/>
      <point x="285" y="-287"/>
      <point x="340" y="43"/>
      <point x="345" y="77" type="curve"/>
      <point x="72" y="77" type="line"/>
    </contour>
  </outline>
</glyph>
<glyph name="quotedblleft" format="1">
  <advance width="903"/>
  <unicode hex="201C"/>
  <outline>
    <contour>
      <point x="399" y="1288" type="line"/>
      <point x="399" y="1558" type="line"/>
      <point x="271" y="1558" type="line"/>
      <point x="274" y="1623"/>
      <point x="335" y="1664"/>
      <point x="403" y="1671" type="curve"/>
      <point x="332" y="1814" type="line"/>
      <point x="148" y="1812"/>
      <point x="124" y="1645"/>
      <point x="124" y="1468" type="curve" smooth="yes"/>
      <point x="124" y="1407"/>
      <point x="127" y="1345"/>
      <point x="127" y="1288" type="curve"/>
    </contour>
    <contour>
      <point x="763" y="1288" type="line"/>
      <point x="763" y="1558" type="line"/>
      <point x="635" y="1558" type="line"/>
      <point x="638" y="1622"/>
      <point x="698" y="1664"/>
      <point x="767" y="1671" type="curve"/>
      <point x="697" y="1814" type="line"/>
      <point x="512" y="1812"/>
      <point x="488" y="1643"/>
      <point x="488" y="1465" type="curve" smooth="yes"/>
      <point x="488" y="1405"/>
      <point x="491" y="1344"/>
      <point x="491" y="1288" type="curve"/>
    </contour>
  </outline>
</glyph>
<glyph name="quotedblright" format="1">
  <advance width="900"/>
  <unicode hex="201D"/>
  <outline>
    <contour>
      <point x="191" y="1282" type="line"/>
      <point x="375" y="1284"/>
      <point x="399" y="1452"/>
      <point x="399" y="1628" type="curve" smooth="yes"/>
      <point x="399" y="1690"/>
      <point x="396" y="1752"/>
      <point x="396" y="1809" type="curve"/>
      <point x="124" y="1809" type="line"/>
      <point x="124" y="1538" type="line"/>
      <point x="252" y="1538" type="line"/>
      <point x="251" y="1473"/>
      <point x="186" y="1432"/>
      <point x="120" y="1426" type="curve"/>
    </contour>
    <contour>
      <point x="555" y="1282" type="line"/>
      <point x="740" y="1284"/>
      <point x="764" y="1453"/>
      <point x="764" y="1631" type="curve" smooth="yes"/>
      <point x="764" y="1691"/>
      <point x="761" y="1753"/>
      <point x="761" y="1809" type="curve"/>
      <point x="489" y="1809" type="line"/>
      <point x="489" y="1538" type="line"/>
      <point x="617" y="1538" type="line"/>
      <point x="614" y="1473"/>
      <point x="552" y="1432"/>
      <point x="484" y="1426" type="curve"/>
    </contour>
  </outline>
</glyph>
<glyph name="quotedblbase" format="1">
  <advance width="754"/>
  <unicode hex="201E"/>
  <outline>
    <contour>
      <point x="140" y="-320" type="line"/>
      <point x="281" y="-320" type="line"/>
      <point x="287" y="-286"/>
      <point x="342" y="44"/>
      <point x="348" y="78" type="curve"/>
      <point x="74" y="78" type="line"/>
    </contour>
    <contour>
      <point x="464" y="-320" type="line"/>
      <point x="604" y="-320" type="line"/>
      <point x="610" y="-286"/>
      <point x="666" y="44"/>
      <point x="671" y="78" type="curve"/>
      <point x="397" y="78" type="line"/>
    </contour>
  </outline>
</glyph>
<glyph name="bullet" format="1">
  <advance width="895"/>
  <unicode hex="2022"/>
  <outline>
    <contour>
      <point x="407" y="431" type="curve" smooth="yes"/>
      <point x="423" y="428"/>
      <point x="440" y="427"/>
      <point x="456" y="427" type="curve" smooth="yes"/>
      <point x="597" y="427"/>
      <point x="742" y="530"/>
      <point x="742" y="737" type="curve" smooth="yes"/>
      <point x="742" y="925"/>
      <point x="590" y="1034"/>
      <point x="438" y="1034" type="curve" smooth="yes"/>
      <point x="300" y="1034"/>
      <point x="155" y="931"/>
      <point x="155" y="721" type="curve" smooth="yes"/>
      <point x="155" y="552"/>
      <point x="274" y="453"/>
    </contour>
  </outline>
</glyph>
<glyph name="perthousand" format="1">
  <advance width="2647"/>
  <unicode hex="2030"/>
  <outline>
    <contour>
      <point x="561" y="0" type="line"/>
      <point x="727" y="0" type="line"/>
      <point x="1299" y="1810" type="line"/>
      <point x="1132" y="1810" type="line"/>
    </contour>
    <contour>
      <point x="1459" y="794" type="line"/>
      <point x="1541" y="776"/>
      <point x="1549" y="669"/>
      <point x="1549" y="521" type="curve" smooth="yes"/>
      <point x="1549" y="466" type="line" smooth="yes"/>
      <point x="1549" y="318"/>
      <point x="1538" y="201"/>
      <point x="1458" y="181" type="curve"/>
      <point x="1459" y="-5" type="line"/>
      <point x="1701" y="8"/>
      <point x="1784" y="204"/>
      <point x="1784" y="465" type="curve" smooth="yes"/>
      <point x="1784" y="525" type="line" smooth="yes"/>
      <point x="1784" y="791"/>
      <point x="1699" y="969"/>
      <point x="1459" y="981" type="curve"/>
    </contour>
    <contour>
      <point x="1408" y="181" type="line"/>
      <point x="1329" y="201"/>
      <point x="1316" y="318"/>
      <point x="1316" y="466" type="curve" smooth="yes"/>
      <point x="1316" y="522" type="line" smooth="yes"/>
      <point x="1316" y="670"/>
      <point x="1327" y="778"/>
      <point x="1409" y="795" type="curve"/>
      <point x="1408" y="981" type="line"/>
      <point x="1167" y="969"/>
      <point x="1084" y="790"/>
      <point x="1084" y="525" type="curve" smooth="yes"/>
      <point x="1084" y="465" type="line" smooth="yes"/>
      <point x="1084" y="204"/>
      <point x="1166" y="8"/>
      <point x="1408" y="-5" type="curve"/>
    </contour>
    <contour>
      <point x="459" y="1596" type="line"/>
      <point x="541" y="1578"/>
      <point x="549" y="1471"/>
      <point x="549" y="1323" type="curve" smooth="yes"/>
      <point x="549" y="1268" type="line" smooth="yes"/>
      <point x="549" y="1120"/>
      <point x="538" y="1003"/>
      <point x="458" y="983" type="curve"/>
      <point x="459" y="797" type="line"/>
      <point x="701" y="810"/>
      <point x="784" y="1006"/>
      <point x="784" y="1267" type="curve" smooth="yes"/>
      <point x="784" y="1327" type="line" smooth="yes"/>
      <point x="784" y="1593"/>
      <point x="699" y="1771"/>
      <point x="459" y="1783" type="curve"/>
    </contour>
    <contour>
      <point x="408" y="983" type="line"/>
      <point x="329" y="1003"/>
      <point x="316" y="1120"/>
      <point x="316" y="1268" type="curve" smooth="yes"/>
      <point x="316" y="1324" type="line" smooth="yes"/>
      <point x="316" y="1472"/>
      <point x="327" y="1580"/>
      <point x="409" y="1597" type="curve"/>
      <point x="408" y="1783" type="line"/>
      <point x="167" y="1771"/>
      <point x="84" y="1592"/>
      <point x="84" y="1327" type="curve" smooth="yes"/>
      <point x="84" y="1267" type="line" smooth="yes"/>
      <point x="84" y="1006"/>
      <point x="166" y="810"/>
      <point x="408" y="797" type="curve"/>
    </contour>
    <contour>
      <point x="2240" y="794" type="line"/>
      <point x="2322" y="776"/>
      <point x="2330" y="669"/>
      <point x="2330" y="521" type="curve" smooth="yes"/>
      <point x="2330" y="466" type="line" smooth="yes"/>
      <point x="2330" y="318"/>
      <point x="2319" y="201"/>
      <point x="2239" y="181" type="curve"/>
      <point x="2240" y="-5" type="line"/>
      <point x="2482" y="8"/>
      <point x="2565" y="204"/>
      <point x="2565" y="465" type="curve" smooth="yes"/>
      <point x="2565" y="525" type="line" smooth="yes"/>
      <point x="2565" y="791"/>
      <point x="2480" y="969"/>
      <point x="2240" y="981" type="curve"/>
    </contour>
    <contour>
      <point x="2189" y="181" type="line"/>
      <point x="2110" y="201"/>
      <point x="2097" y="318"/>
      <point x="2097" y="466" type="curve" smooth="yes"/>
      <point x="2097" y="522" type="line" smooth="yes"/>
      <point x="2097" y="670"/>
      <point x="2108" y="778"/>
      <point x="2190" y="795" type="curve"/>
      <point x="2189" y="981" type="line"/>
      <point x="1948" y="969"/>
      <point x="1865" y="790"/>
      <point x="1865" y="525" type="curve" smooth="yes"/>
      <point x="1865" y="465" type="line" smooth="yes"/>
      <point x="1865" y="204"/>
      <point x="1947" y="8"/>
      <point x="2189" y="-5" type="curve"/>
    </contour>
  </outline>
</glyph>
<glyph name="guilsinglleft" format="1">
  <advance width="605"/>
  <unicode hex="2039"/>
  <outline>
    <contour>
      <point x="513" y="77" type="line"/>
      <point x="513" y="371" type="line"/>
      <point x="253" y="641" type="line"/>
      <point x="513" y="909" type="line"/>
      <point x="513" y="1203" type="line"/>
      <point x="79" y="704" type="line"/>
      <point x="79" y="576" type="line"/>
    </contour>
  </outline>
</glyph>
<glyph name="guilsinglright" format="1">
  <advance width="591"/>
  <unicode hex="203A"/>
  <outline>
    <contour>
      <point x="79" y="77" type="line"/>
      <point x="513" y="576" type="line"/>
      <point x="513" y="704" type="line"/>
      <point x="79" y="1203" type="line"/>
      <point x="79" y="909" type="line"/>
      <point x="339" y="641" type="line"/>
      <point x="79" y="371" type="line"/>
    </contour>
  </outline>
</glyph>
<glyph name="fraction" format="1">
  <advance width="625"/>
  <unicode hex="2044"/>
  <outline>
    <contour>
      <point x="16" y="0" type="line"/>
      <point x="200" y="0" type="line"/>
      <point x="526" y="1783" type="line"/>
      <point x="339" y="1783" type="line"/>
    </contour>
  </outline>
</glyph>
<glyph name="foursuperior" format="1">
  <advance width="808"/>
  <unicode hex="2074"/>
  <outline>
    <contour>
      <point x="599" y="1613" type="line"/>
      <point x="399" y="1152" type="line"/>
      <point x="399" y="584" type="line"/>
      <point x="602" y="584" type="line"/>
      <point x="602" y="1613" type="line"/>
    </contour>
    <contour>
      <point x="545" y="1613" type="line"/>
      <point x="384" y="1613" type="line"/>
      <point x="82" y="984" type="line"/>
      <point x="82" y="847" type="line"/>
      <point x="349" y="847" type="line"/>
      <point x="349" y="993" type="line"/>
      <point x="275" y="993" type="line"/>
    </contour>
    <contour>
      <point x="652" y="847" type="line"/>
      <point x="733" y="847" type="line"/>
      <point x="733" y="993" type="line"/>
      <point x="652" y="993" type="line"/>
    </contour>
  </outline>
</glyph>
<glyph name="Euro" format="1">
  <advance width="1052"/>
  <unicode hex="20AC"/>
  <outline>
    <contour>
      <point x="563" y="1390" type="line"/>
      <point x="687" y="1369"/>
      <point x="711" y="1200"/>
      <point x="711" y="1086" type="curve" smooth="yes"/>
      <point x="711" y="1058" type="line"/>
      <point x="962" y="1058" type="line"/>
      <point x="962" y="1078" type="line" smooth="yes"/>
      <point x="959" y="1361"/>
      <point x="870" y="1602"/>
      <point x="563" y="1618" type="curve"/>
    </contour>
    <contour>
      <point x="563" y="-27" type="line"/>
      <point x="892" y="-14"/>
      <point x="965" y="265"/>
      <point x="966" y="553" type="curve" smooth="yes"/>
      <point x="966" y="578" type="line"/>
      <point x="718" y="578" type="line"/>
      <point x="718" y="547" type="line" smooth="yes"/>
      <point x="718" y="424"/>
      <point x="703" y="222"/>
      <point x="563" y="206" type="curve"/>
    </contour>
    <contour>
      <point x="512" y="207" type="line"/>
      <point x="376" y="226"/>
      <point x="358" y="372"/>
      <point x="353" y="499" type="curve"/>
      <point x="353" y="554" type="line"/>
      <point x="512" y="554" type="line"/>
      <point x="512" y="727" type="line"/>
      <point x="351" y="727" type="line"/>
      <point x="351" y="855" type="line"/>
      <point x="512" y="855" type="line"/>
      <point x="512" y="1028" type="line"/>
      <point x="351" y="1028" type="line"/>
      <point x="351" y="1088" type="line" smooth="yes"/>
      <point x="351" y="1224"/>
      <point x="359" y="1378"/>
      <point x="513" y="1391" type="curve"/>
      <point x="512" y="1619" type="line"/>
      <point x="192" y="1608"/>
      <point x="109" y="1365"/>
      <point x="98" y="1081" type="curve"/>
      <point x="98" y="1028" type="line"/>
      <point x="15" y="1028" type="line"/>
      <point x="15" y="855" type="line"/>
      <point x="95" y="855" type="line"/>
      <point x="95" y="727" type="line"/>
      <point x="15" y="727" type="line"/>
      <point x="15" y="554" type="line"/>
      <point x="96" y="554" type="line"/>
      <point x="96" y="504" type="line"/>
      <point x="106" y="218"/>
      <point x="193" y="-14"/>
      <point x="512" y="-26" type="curve"/>
    </contour>
  </outline>
</glyph>
<glyph name="trademark" format="1">
  <advance width="2048"/>
  <unicode hex="2122"/>
  <outline>
    <contour>
      <point x="305" y="686" type="line"/>
      <point x="460" y="686" type="line"/>
      <point x="460" y="1364" type="line"/>
      <point x="624" y="1364" type="line"/>
      <point x="624" y="1501" type="line"/>
      <point x="142" y="1501" type="line"/>
      <point x="142" y="1364" type="line"/>
      <point x="305" y="1364" type="line"/>
    </contour>
    <contour>
      <point x="731" y="686" type="line"/>
      <point x="874" y="686" type="line"/>
      <point x="874" y="1276" type="line"/>
      <point x="1025" y="686" type="line"/>
      <point x="1115" y="686" type="line"/>
      <point x="1266" y="1279" type="line"/>
      <point x="1266" y="686" type="line"/>
      <point x="1411" y="686" type="line"/>
      <point x="1411" y="1501" type="line"/>
      <point x="1189" y="1501" type="line"/>
      <point x="1070" y="1029" type="line"/>
      <point x="956" y="1501" type="line"/>
      <point x="731" y="1501" type="line"/>
    </contour>
  </outline>
</glyph>
<glyph name="commaaccent" format="1">
  <advance width="505"/>
  <unicode hex="F6C3"/>
  <outline>
    <contour>
      <point x="242" y="0" type="move" name="_bot"/>
    </contour>
    <contour>
      <point x="165" y="-613" type="line"/>
      <point x="371" y="-611"/>
      <point x="393" y="-459"/>
      <point x="393" y="-217" type="curve" smooth="yes"/>
      <point x="393" y="-174"/>
      <point x="392" y="-128"/>
      <point x="392" y="-80" type="curve"/>
      <point x="100" y="-80" type="line"/>
      <point x="100" y="-367" type="line"/>
      <point x="214" y="-367" type="line"/>
      <point x="213" y="-443"/>
      <point x="204" y="-464"/>
      <point x="128" y="-472" type="curve"/>
    </contour>
  </outline>
</glyph>
<glyph name=".notdef" format="1">
  <advance width="757"/>
  <outline>
    <contour>
      <point x="232" y="106" type="line"/>
      <point x="232" y="1262" type="line"/>
      <point x="528" y="1262" type="line"/>
      <point x="528" y="106" type="line"/>
    </contour>
    <contour>
      <point x="105" y="-2" type="line"/>
      <point x="656" y="-2" type="line"/>
      <point x="656" y="1368" type="line"/>
      <point x="105" y="1368" type="line"/>
    </contour>
  </outline>
</glyph>
<glyph name="foundryicon" format="1">
  <advance width="1562"/>
  <outline>
    <contour>
      <point x="318" y="277" type="line"/>
      <point x="777" y="604" type="line"/>
      <point x="1246" y="277" type="line"/>
      <point x="1076" y="819" type="line"/>
      <point x="1537" y="1168" type="line"/>
      <point x="965" y="1168" type="line"/>
      <point x="777" y="1710" type="line"/>
      <point x="599" y="1168" type="line"/>
      <point x="27" y="1168" type="line"/>
      <point x="486" y="819" type="line"/>
    </contour>
  </outline>
</glyph>
